<svg class="main-svg" xmlns="http://www.w3.org/2000/svg" xmlns:xlink="http://www.w3.org/1999/xlink" width="1100" height="650" style="" viewBox="0 0 1100 650"><rect x="0" y="0" width="1100" height="650" style="fill: rgb(255, 255, 255); fill-opacity: 1;"/><defs id="defs-712eb3"><g class="clips"><clipPath id="clip712eb3xyplot" class="plotclip"><rect width="771" height="415"/></clipPath><clipPath class="axesclip" id="clip712eb3x"><rect x="71" y="0" width="771" height="650"/></clipPath><clipPath class="axesclip" id="clip712eb3y"><rect x="0" y="30" width="1100" height="415"/></clipPath><clipPath class="axesclip" id="clip712eb3xy"><rect x="71" y="30" width="771" height="415"/></clipPath></g><g class="gradients"><linearGradient x1="0" y1="1" x2="0" y2="0" gradientUnits="objectBoundingBox" id="g712eb3-cbcoloraxis"><stop offset="0%" stop-color="rgb(13, 8, 135)" stop-opacity="1"/><stop offset="11.111111%" stop-color="rgb(70, 3, 159)" stop-opacity="1"/><stop offset="22.222222%" stop-color="rgb(114, 1, 168)" stop-opacity="1"/><stop offset="33.333333%" stop-color="rgb(156, 23, 158)" stop-opacity="1"/><stop offset="44.444444%" stop-color="rgb(189, 55, 134)" stop-opacity="1"/><stop offset="55.555556%" stop-color="rgb(216, 87, 107)" stop-opacity="1"/><stop offset="66.666667%" stop-color="rgb(237, 121, 83)" stop-opacity="1"/><stop offset="77.777778%" stop-color="rgb(251, 159, 58)" stop-opacity="1"/><stop offset="88.888889%" stop-color="rgb(253, 202, 38)" stop-opacity="1"/><stop offset="100%" stop-color="rgb(240, 249, 33)" stop-opacity="1"/></linearGradient></g><g class="patterns"/></defs><g class="bglayer"><rect class="bg" x="71" y="30" width="771" height="415" style="fill: rgb(229, 236, 246); fill-opacity: 1; stroke-width: 0;"/></g><g class="layer-below"><g class="imagelayer"/><g class="shapelayer"/></g><g class="cartesianlayer"><g class="subplot xy"><g class="layer-subplot"><g class="shapelayer"/><g class="imagelayer"/></g><g class="minor-gridlayer"><g class="x"/><g class="y"/></g><g class="gridlayer"><g class="x"><path class="xgrid crisp" transform="translate(164.89,0)" d="M0,30v415" style="stroke: rgb(255, 255, 255); stroke-opacity: 1; stroke-width: 1px;"/><path class="xgrid crisp" transform="translate(234.41,0)" d="M0,30v415" style="stroke: rgb(255, 255, 255); stroke-opacity: 1; stroke-width: 1px;"/><path class="xgrid crisp" transform="translate(303.93,0)" d="M0,30v415" style="stroke: rgb(255, 255, 255); stroke-opacity: 1; stroke-width: 1px;"/><path class="xgrid crisp" transform="translate(373.44,0)" d="M0,30v415" style="stroke: rgb(255, 255, 255); stroke-opacity: 1; stroke-width: 1px;"/><path class="xgrid crisp" transform="translate(442.96,0)" d="M0,30v415" style="stroke: rgb(255, 255, 255); stroke-opacity: 1; stroke-width: 1px;"/><path class="xgrid crisp" transform="translate(512.48,0)" d="M0,30v415" style="stroke: rgb(255, 255, 255); stroke-opacity: 1; stroke-width: 1px;"/><path class="xgrid crisp" transform="translate(582,0)" d="M0,30v415" style="stroke: rgb(255, 255, 255); stroke-opacity: 1; stroke-width: 1px;"/><path class="xgrid crisp" transform="translate(651.51,0)" d="M0,30v415" style="stroke: rgb(255, 255, 255); stroke-opacity: 1; stroke-width: 1px;"/><path class="xgrid crisp" transform="translate(721.03,0)" d="M0,30v415" style="stroke: rgb(255, 255, 255); stroke-opacity: 1; stroke-width: 1px;"/><path class="xgrid crisp" transform="translate(790.55,0)" d="M0,30v415" style="stroke: rgb(255, 255, 255); stroke-opacity: 1; stroke-width: 1px;"/></g><g class="y"><path class="ygrid crisp" transform="translate(0,399.69)" d="M71,0h771" style="stroke: rgb(255, 255, 255); stroke-opacity: 1; stroke-width: 1px;"/><path class="ygrid crisp" transform="translate(0,338.13)" d="M71,0h771" style="stroke: rgb(255, 255, 255); stroke-opacity: 1; stroke-width: 1px;"/><path class="ygrid crisp" transform="translate(0,276.57)" d="M71,0h771" style="stroke: rgb(255, 255, 255); stroke-opacity: 1; stroke-width: 1px;"/><path class="ygrid crisp" transform="translate(0,215)" d="M71,0h771" style="stroke: rgb(255, 255, 255); stroke-opacity: 1; stroke-width: 1px;"/><path class="ygrid crisp" transform="translate(0,153.44)" d="M71,0h771" style="stroke: rgb(255, 255, 255); stroke-opacity: 1; stroke-width: 1px;"/><path class="ygrid crisp" transform="translate(0,91.88)" d="M71,0h771" style="stroke: rgb(255, 255, 255); stroke-opacity: 1; stroke-width: 1px;"/></g></g><g class="zerolinelayer"/><g class="layer-between"><g class="shapelayer"/><g class="imagelayer"/></g><path class="xlines-below"/><path class="ylines-below"/><g class="overlines-below"/><g class="xaxislayer-below"/><g class="yaxislayer-below"/><g class="overaxes-below"/><g class="overplot"><g class="xy" transform="translate(71,30)" clip-path="url(#clip712eb3xyplot)"><g class="scatterlayer mlayer"><g class="trace scatter traced04928" style="stroke-miterlimit: 2; opacity: 1;"><g class="fills"/><g class="errorbars"/><g class="lines"/><g class="points"><path class="point" transform="translate(93.89,338.91)" d="M49.5,0A49.5,49.5 0 1,1 0,-49.5A49.5,49.5 0 0,1 49.5,0Z" style="opacity: 0.7; stroke-width: 1px; fill: rgb(240, 249, 33); fill-opacity: 1; stroke: rgb(255, 255, 255); stroke-opacity: 1;"/><path class="point" transform="translate(163.41,244.6)" d="M29.97,0A29.97,29.97 0 1,1 0,-29.97A29.97,29.97 0 0,1 29.97,0Z" style="opacity: 0.7; stroke-width: 1px; fill: rgb(155, 22, 158); fill-opacity: 1; stroke: rgb(255, 255, 255); stroke-opacity: 1;"/><path class="point" transform="translate(232.93,308.4)" d="M24.32,0A24.32,24.32 0 1,1 0,-24.32A24.32,24.32 0 0,1 24.32,0Z" style="opacity: 0.7; stroke-width: 1px; fill: rgb(104, 1, 166); fill-opacity: 1; stroke: rgb(255, 255, 255); stroke-opacity: 1;"/><path class="point" transform="translate(302.44,138.55)" d="M23.87,0A23.87,23.87 0 1,1 0,-23.87A23.87,23.87 0 0,1 23.87,0Z" style="opacity: 0.7; stroke-width: 1px; fill: rgb(101, 2, 165); fill-opacity: 1; stroke: rgb(255, 255, 255); stroke-opacity: 1;"/><path class="point" transform="translate(371.96,152.68)" d="M17.24,0A17.24,17.24 0 1,1 0,-17.24A17.24,17.24 0 0,1 17.24,0Z" style="opacity: 0.7; stroke-width: 1px; fill: rgb(49, 5, 150); fill-opacity: 1; stroke: rgb(255, 255, 255); stroke-opacity: 1;"/><path class="point" transform="translate(441.48,198.7)" d="M13.8,0A13.8,13.8 0 1,1 0,-13.8A13.8,13.8 0 0,1 13.8,0Z" style="opacity: 0.7; stroke-width: 1px; fill: rgb(26, 7, 140); fill-opacity: 1; stroke: rgb(255, 255, 255); stroke-opacity: 1;"/><path class="point" transform="translate(511,263.8)" d="M13.39,0A13.39,13.39 0 1,1 0,-13.39A13.39,13.39 0 0,1 13.39,0Z" style="opacity: 0.7; stroke-width: 1px; fill: rgb(23, 7, 139); fill-opacity: 1; stroke: rgb(255, 255, 255); stroke-opacity: 1;"/><path class="point" transform="translate(580.51,34.58)" d="M12.37,0A12.37,12.37 0 1,1 0,-12.37A12.37,12.37 0 0,1 12.37,0Z" style="opacity: 0.7; stroke-width: 1px; fill: rgb(17, 8, 137); fill-opacity: 1; stroke: rgb(255, 255, 255); stroke-opacity: 1;"/><path class="point" transform="translate(650.03,266.51)" d="M11.8,0A11.8,11.8 0 1,1 0,-11.8A11.8,11.8 0 0,1 11.8,0Z" style="opacity: 0.7; stroke-width: 1px; fill: rgb(14, 8, 136); fill-opacity: 1; stroke: rgb(255, 255, 255); stroke-opacity: 1;"/><path class="point" transform="translate(719.55,302.36)" d="M11.54,0A11.54,11.54 0 1,1 0,-11.54A11.54,11.54 0 0,1 11.54,0Z" style="opacity: 0.7; stroke-width: 1px; fill: rgb(13, 8, 135); fill-opacity: 1; stroke: rgb(255, 255, 255); stroke-opacity: 1;"/></g><g class="text"/></g></g></g></g><path class="xlines-above crisp" d="M70,445.5H842" style="fill: none; stroke-width: 1px; stroke: rgb(0, 0, 0); stroke-opacity: 1;"/><path class="ylines-above crisp" d="M70.5,30V445" style="fill: none; stroke-width: 1px; stroke: rgb(0, 0, 0); stroke-opacity: 1;"/><g class="overlines-above"/><g class="xaxislayer-above"><g class="xtick"><text text-anchor="end" x="0" y="465.2" transform="translate(164.89,0) rotate(-40,0,457.2)" style="font-family: Arial; font-size: 16px; fill: rgb(42, 63, 95); fill-opacity: 1; white-space: pre; opacity: 1;">Data Analysts</text></g><g class="xtick"><text text-anchor="end" x="0" y="465.2" transform="translate(234.41,0) rotate(-40,0,457.2)" style="font-family: Arial; font-size: 16px; fill: rgb(42, 63, 95); fill-opacity: 1; white-space: pre; opacity: 1;">Unclassified</text></g><g class="xtick"><text text-anchor="end" x="0" y="465.2" transform="translate(303.93,0) rotate(-40,0,457.2)" style="font-family: Arial; font-size: 16px; fill: rgb(42, 63, 95); fill-opacity: 1; white-space: pre; opacity: 1;">Business Intelligence Analysts</text></g><g class="xtick"><text text-anchor="end" x="0" y="465.2" transform="translate(373.44,0) rotate(-40,0,457.2)" style="font-family: Arial; font-size: 16px; fill: rgb(42, 63, 95); fill-opacity: 1; white-space: pre; opacity: 1;">Enterprise Architects</text></g><g class="xtick"><text text-anchor="end" x="0" y="465.2" transform="translate(442.96,0) rotate(-40,0,457.2)" style="font-family: Arial; font-size: 16px; fill: rgb(42, 63, 95); fill-opacity: 1; white-space: pre; opacity: 1;">Oracle Cloud HCM Consultants</text></g><g class="xtick"><text text-anchor="end" x="0" y="465.2" transform="translate(512.48,0) rotate(-40,0,457.2)" style="font-family: Arial; font-size: 16px; fill: rgb(42, 63, 95); fill-opacity: 1; white-space: pre; opacity: 1;">Data Modelers</text></g><g class="xtick"><text text-anchor="end" x="0" y="465.2" transform="translate(582,0) rotate(-40,0,457.2)" style="font-family: Arial; font-size: 16px; fill: rgb(42, 63, 95); fill-opacity: 1; white-space: pre; opacity: 1;">Data Governance Analysts</text></g><g class="xtick"><text text-anchor="end" x="0" y="465.2" transform="translate(651.51,0) rotate(-40,0,457.2)" style="font-family: Arial; font-size: 16px; fill: rgb(42, 63, 95); fill-opacity: 1; white-space: pre; opacity: 1;">Data Analytics Engineers</text></g><g class="xtick"><text text-anchor="end" x="0" y="465.2" transform="translate(721.03,0) rotate(-40,0,457.2)" style="font-family: Arial; font-size: 16px; fill: rgb(42, 63, 95); fill-opacity: 1; white-space: pre; opacity: 1;">ERP Business Analysts</text></g><g class="xtick"><text text-anchor="end" x="0" y="465.2" transform="translate(790.55,0) rotate(-40,0,457.2)" style="font-family: Arial; font-size: 16px; fill: rgb(42, 63, 95); fill-opacity: 1; white-space: pre; opacity: 1;">Data Quality Analysts</text></g></g><g class="yaxislayer-above"><g class="ytick"><text text-anchor="end" x="66.8" y="5.6" transform="translate(0,399.69)" style="font-family: Arial; font-size: 16px; fill: rgb(42, 63, 95); fill-opacity: 1; white-space: pre; opacity: 1;">80k</text></g><g class="ytick"><text text-anchor="end" x="66.8" y="5.6" style="font-family: Arial; font-size: 16px; fill: rgb(42, 63, 95); fill-opacity: 1; white-space: pre; opacity: 1;" transform="translate(0,338.13)">100k</text></g><g class="ytick"><text text-anchor="end" x="66.8" y="5.6" style="font-family: Arial; font-size: 16px; fill: rgb(42, 63, 95); fill-opacity: 1; white-space: pre; opacity: 1;" transform="translate(0,276.57)">120k</text></g><g class="ytick"><text text-anchor="end" x="66.8" y="5.6" style="font-family: Arial; font-size: 16px; fill: rgb(42, 63, 95); fill-opacity: 1; white-space: pre; opacity: 1;" transform="translate(0,215)">140k</text></g><g class="ytick"><text text-anchor="end" x="66.8" y="5.6" style="font-family: Arial; font-size: 16px; fill: rgb(42, 63, 95); fill-opacity: 1; white-space: pre; opacity: 1;" transform="translate(0,153.44)">160k</text></g><g class="ytick"><text text-anchor="end" x="66.8" y="5.6" style="font-family: Arial; font-size: 16px; fill: rgb(42, 63, 95); fill-opacity: 1; white-space: pre; opacity: 1;" transform="translate(0,91.88)">180k</text></g><g class="ytick"><text text-anchor="end" x="66.8" y="5.6" style="font-family: Arial; font-size: 16px; fill: rgb(42, 63, 95); fill-opacity: 1; white-space: pre; opacity: 1;" transform="translate(0,30.32)">200k</text></g></g><g class="overaxes-above"/></g></g><g class="polarlayer"/><g class="smithlayer"/><g class="ternarylayer"/><g class="geolayer"/><g class="funnelarealayer"/><g class="pielayer"/><g class="iciclelayer"/><g class="treemaplayer"/><g class="sunburstlayer"/><g class="glimages"/><defs id="topdefs-712eb3"><g class="clips"/></defs><g class="layer-above"><g class="imagelayer"/><g class="shapelayer"/></g><g class="infolayer"><g class="cbcoloraxis colorbar" transform="translate(71,30)"><rect class="cbbg" x="786" y="0" width="242.421875" height="415" style="fill: rgb(0, 0, 0); fill-opacity: 0; stroke: rgb(68, 68, 68); stroke-opacity: 1; stroke-width: 0;"/><g class="cbfills" transform="translate(0,37)"><rect class="cbfill gradient_filled" style="fill: url('#g712eb3-cbcoloraxis');" x="796" y="0" width="30" height="368"/></g><g class="cblines" transform="translate(0,37)"/><g class="cbaxis crisp" transform="translate(0,-30)"><g class="ycbcoloraxistick"><text text-anchor="start" x="829.7" y="5.6" transform="translate(0,410.86)" style="font-family: Arial; font-size: 16px; fill: rgb(42, 63, 95); fill-opacity: 1; white-space: pre; opacity: 1;">1000</text></g><g class="ycbcoloraxistick"><text text-anchor="start" x="829.7" y="5.6" style="font-family: Arial; font-size: 16px; fill: rgb(42, 63, 95); fill-opacity: 1; white-space: pre; opacity: 1;" transform="translate(0,365.58)">2000</text></g><g class="ycbcoloraxistick"><text text-anchor="start" x="829.7" y="5.6" style="font-family: Arial; font-size: 16px; fill: rgb(42, 63, 95); fill-opacity: 1; white-space: pre; opacity: 1;" transform="translate(0,320.28999999999996)">3000</text></g><g class="ycbcoloraxistick"><text text-anchor="start" x="829.7" y="5.6" style="font-family: Arial; font-size: 16px; fill: rgb(42, 63, 95); fill-opacity: 1; white-space: pre; opacity: 1;" transform="translate(0,275)">4000</text></g><g class="ycbcoloraxistick"><text text-anchor="start" x="829.7" y="5.6" style="font-family: Arial; font-size: 16px; fill: rgb(42, 63, 95); fill-opacity: 1; white-space: pre; opacity: 1;" transform="translate(0,229.72)">5000</text></g><g class="ycbcoloraxistick"><text text-anchor="start" x="829.7" y="5.6" style="font-family: Arial; font-size: 16px; fill: rgb(42, 63, 95); fill-opacity: 1; white-space: pre; opacity: 1;" transform="translate(0,184.43)">6000</text></g><g class="ycbcoloraxistick"><text text-anchor="start" x="829.7" y="5.6" style="font-family: Arial; font-size: 16px; fill: rgb(42, 63, 95); fill-opacity: 1; white-space: pre; opacity: 1;" transform="translate(0,139.14)">7000</text></g><g class="ycbcoloraxistick"><text text-anchor="start" x="829.7" y="5.6" style="font-family: Arial; font-size: 16px; fill: rgb(42, 63, 95); fill-opacity: 1; white-space: pre; opacity: 1;" transform="translate(0,93.86)">8000</text></g></g><g class="cbtitleunshift" transform="translate(-71,-30)"><g class="cbtitle" transform=""><text class="ycbcoloraxistitle" x="867.42" y="57.25" text-anchor="start" style="opacity: 1; font-family: Arial; font-size: 19px; fill: rgb(42, 63, 95); fill-opacity: 1; white-space: pre;">Number of Job Postings</text></g></g><rect class="cboutline" x="796" y="37" width="30" height="368" style="stroke: rgb(68, 68, 68); stroke-opacity: 1; fill: none; stroke-width: 0;"/></g><g class="g-gtitle"><text class="gtitle" x="55" y="15" text-anchor="start" dy="0em" style="opacity: 1; font-family: Arial; font-size: 22px; fill: rgb(42, 63, 95); fill-opacity: 1; white-space: pre;">Salary Analysis by ONET Occupation Type</text></g><g class="g-xtitle" transform="translate(0,-3.6927734375000227)"><text class="xtitle" x="456.5" y="649.6927734375" text-anchor="middle" style="opacity: 1; font-family: Arial; font-size: 18px; fill: rgb(42, 63, 95); fill-opacity: 1; white-space: pre;">Occupation Type</text></g><g class="g-ytitle" transform="translate(10.0029296875,0)"><text class="ytitle" transform="rotate(-90,6.996875000000003,237.5)" x="6.996875000000003" y="237.5" text-anchor="middle" style="opacity: 1; font-family: Arial; font-size: 18px; fill: rgb(42, 63, 95); fill-opacity: 1; white-space: pre;">Median Salary (USD)</text></g></g></svg>