<svg class="main-svg" xmlns="http://www.w3.org/2000/svg" xmlns:xlink="http://www.w3.org/1999/xlink" width="1000" height="500" style="" viewBox="0 0 1000 500"><rect x="0" y="0" width="1000" height="500" style="fill: rgb(211, 211, 211); fill-opacity: 1;"/><defs id="defs-0a3690"><g class="clips"><clipPath id="clip0a3690xyplot" class="plotclip"><rect width="933" height="388"/></clipPath><clipPath class="axesclip" id="clip0a3690x"><rect x="67" y="0" width="933" height="500"/></clipPath><clipPath class="axesclip" id="clip0a3690y"><rect x="0" y="30" width="1000" height="388"/></clipPath><clipPath class="axesclip" id="clip0a3690xy"><rect x="67" y="30" width="933" height="388"/></clipPath></g><g class="gradients"/><g class="patterns"/></defs><g class="bglayer"><rect class="bg" x="67" y="30" width="933" height="388" style="fill: rgb(255, 255, 255); fill-opacity: 1; stroke-width: 0;"/></g><g class="layer-below"><g class="imagelayer"/><g class="shapelayer"/></g><g class="cartesianlayer"><g class="subplot xy"><g class="layer-subplot"><g class="shapelayer"/><g class="imagelayer"/></g><g class="minor-gridlayer"><g class="x"/><g class="y"/></g><g class="gridlayer"><g class="x"><path class="xgrid crisp" transform="translate(117.4,0)" d="M0,30v388" style="stroke: rgb(255, 255, 255); stroke-opacity: 1; stroke-width: 1px;"/><path class="xgrid crisp" transform="translate(287.13,0)" d="M0,30v388" style="stroke: rgb(255, 255, 255); stroke-opacity: 1; stroke-width: 1px;"/><path class="xgrid crisp" transform="translate(451.38,0)" d="M0,30v388" style="stroke: rgb(255, 255, 255); stroke-opacity: 1; stroke-width: 1px;"/><path class="xgrid crisp" transform="translate(621.1,0)" d="M0,30v388" style="stroke: rgb(255, 255, 255); stroke-opacity: 1; stroke-width: 1px;"/><path class="xgrid crisp" transform="translate(790.82,0)" d="M0,30v388" style="stroke: rgb(255, 255, 255); stroke-opacity: 1; stroke-width: 1px;"/><path class="xgrid crisp" transform="translate(955.07,0)" d="M0,30v388" style="stroke: rgb(255, 255, 255); stroke-opacity: 1; stroke-width: 1px;"/></g><g class="y"><path class="ygrid crisp" transform="translate(0,344.76)" d="M67,0h933" style="stroke: rgb(211, 211, 211); stroke-opacity: 1; stroke-width: 1px;"/><path class="ygrid crisp" transform="translate(0,276.15)" d="M67,0h933" style="stroke: rgb(211, 211, 211); stroke-opacity: 1; stroke-width: 1px;"/><path class="ygrid crisp" transform="translate(0,207.53)" d="M67,0h933" style="stroke: rgb(211, 211, 211); stroke-opacity: 1; stroke-width: 1px;"/><path class="ygrid crisp" transform="translate(0,138.92000000000002)" d="M67,0h933" style="stroke: rgb(211, 211, 211); stroke-opacity: 1; stroke-width: 1px;"/><path class="ygrid crisp" transform="translate(0,70.3)" d="M67,0h933" style="stroke: rgb(211, 211, 211); stroke-opacity: 1; stroke-width: 1px;"/></g></g><g class="zerolinelayer"><path class="yzl zl crisp" transform="translate(0,413.38)" d="M67,0h933" style="stroke: rgb(255, 255, 255); stroke-opacity: 1; stroke-width: 2px;"/></g><g class="layer-between"><g class="shapelayer"/><g class="imagelayer"/></g><path class="xlines-below"/><path class="ylines-below"/><g class="overlines-below"/><g class="xaxislayer-below"/><g class="yaxislayer-below"/><g class="overaxes-below"/><g class="overplot"><g class="xy" transform="translate(67,30)" clip-path="url(#clip0a3690xyplot)"><g class="scatterlayer mlayer"><g class="trace scatter tracebc19f4" style="stroke-miterlimit: 2; opacity: 1;"><g class="fills"/><g class="errorbars"/><g class="lines"><path class="js-line" d="M50.4,209.78L55.88,233.45L61.35,150.43L66.83,186.8L72.3,328.83L77.78,325.4L83.25,206.35L88.73,221.79L94.2,171.01L99.68,177.88L105.15,179.59L110.63,140.48L116.1,280.45L121.58,250.95L127.05,187.14L132.53,192.28L138,224.88L143.48,177.88L148.95,325.05L154.43,256.78L159.9,164.15L165.38,166.55L170.85,227.28L176.33,23.15L181.8,225.91L187.28,307.21L192.75,364.85L203.7,209.1L209.18,206.01L214.65,84.22L220.13,194.34L225.6,247.52L231.08,280.11L236.55,227.96L242.03,136.36L247.5,178.22L252.98,238.26L258.45,254.72L263.93,314.42L269.4,239.63L274.88,133.96L280.35,140.48L285.83,105.83L291.3,148.37L296.78,309.27L302.25,342.55L307.73,225.56L313.2,172.04L318.68,234.14L324.15,213.9L329.63,145.63L335.1,309.27L340.58,347.7L346.05,238.26L351.53,166.55L357,130.53L362.48,67.41L367.95,165.87L373.43,309.62L378.9,345.98L384.38,217.33L389.85,185.77L395.33,192.63L400.8,327.8L406.28,249.23L411.75,334.32L417.23,359.36L422.7,237.23L428.18,160.38L439.13,214.24L444.6,210.81L450.08,312.7L455.55,351.13L461.03,245.46L466.5,192.63L471.97,149.4L477.45,215.96L482.92,236.54L488.4,298.64L493.87,350.78L499.35,237.57L504.82,161.41L510.3,200.86L515.77,217.33L521.25,213.56L526.72,310.99L532.2,342.21L537.67,251.64L543.15,209.1L548.62,218.36L554.1,145.28L559.57,147.34L565.05,321.62L570.52,336.72L576,218.7L581.47,214.24L586.95,130.53L592.42,206.35L597.9,178.22L603.37,289.72L608.85,300.7L614.32,220.76L619.8,162.09L625.27,219.73L630.75,200.52L636.22,137.05L641.7,297.61L647.17,309.96L652.65,242.72L658.12,69.46L663.6,105.14L669.07,164.5L674.55,178.9L680.02,288L685.5,341.52L690.97,260.56L696.45,167.58L701.92,170.67L707.4,176.85L712.87,198.12L718.35,300.01L723.82,330.89L729.3,336.72L734.77,206.69L740.25,103.77L745.72,159.69L751.2,128.13L756.67,284.57L762.15,351.13L767.62,222.48L773.1,206.69L778.57,213.9L784.05,151.12L789.52,179.93L795,312.7L800.47,340.83L805.95,226.59L811.42,147.34L816.9,143.23L822.37,124.7L827.85,194.69L833.32,268.79L838.8,308.59L844.27,205.66L849.75,56.08L855.22,146.66L860.7,66.38L866.17,118.18L871.65,284.57L877.12,225.22L882.6,193.66" style="vector-effect: none; fill: none; stroke: rgb(29, 110, 243); stroke-opacity: 1; stroke-width: 2px; opacity: 1;"/></g><g class="points"><path class="point" transform="translate(50.4,209.78)" d="M3,0A3,3 0 1,1 0,-3A3,3 0 0,1 3,0Z" style="opacity: 1; stroke-width: 0px; fill: rgb(29, 110, 243); fill-opacity: 1;"/><path class="point" transform="translate(55.88,233.45)" d="M3,0A3,3 0 1,1 0,-3A3,3 0 0,1 3,0Z" style="opacity: 1; stroke-width: 0px; fill: rgb(29, 110, 243); fill-opacity: 1;"/><path class="point" transform="translate(61.35,150.43)" d="M3,0A3,3 0 1,1 0,-3A3,3 0 0,1 3,0Z" style="opacity: 1; stroke-width: 0px; fill: rgb(29, 110, 243); fill-opacity: 1;"/><path class="point" transform="translate(66.83,186.8)" d="M3,0A3,3 0 1,1 0,-3A3,3 0 0,1 3,0Z" style="opacity: 1; stroke-width: 0px; fill: rgb(29, 110, 243); fill-opacity: 1;"/><path class="point" transform="translate(72.3,328.83)" d="M3,0A3,3 0 1,1 0,-3A3,3 0 0,1 3,0Z" style="opacity: 1; stroke-width: 0px; fill: rgb(29, 110, 243); fill-opacity: 1;"/><path class="point" transform="translate(77.78,325.4)" d="M3,0A3,3 0 1,1 0,-3A3,3 0 0,1 3,0Z" style="opacity: 1; stroke-width: 0px; fill: rgb(29, 110, 243); fill-opacity: 1;"/><path class="point" transform="translate(83.25,206.35)" d="M3,0A3,3 0 1,1 0,-3A3,3 0 0,1 3,0Z" style="opacity: 1; stroke-width: 0px; fill: rgb(29, 110, 243); fill-opacity: 1;"/><path class="point" transform="translate(88.73,221.79)" d="M3,0A3,3 0 1,1 0,-3A3,3 0 0,1 3,0Z" style="opacity: 1; stroke-width: 0px; fill: rgb(29, 110, 243); fill-opacity: 1;"/><path class="point" transform="translate(94.2,171.01)" d="M3,0A3,3 0 1,1 0,-3A3,3 0 0,1 3,0Z" style="opacity: 1; stroke-width: 0px; fill: rgb(29, 110, 243); fill-opacity: 1;"/><path class="point" transform="translate(99.68,177.88)" d="M3,0A3,3 0 1,1 0,-3A3,3 0 0,1 3,0Z" style="opacity: 1; stroke-width: 0px; fill: rgb(29, 110, 243); fill-opacity: 1;"/><path class="point" transform="translate(105.15,179.59)" d="M3,0A3,3 0 1,1 0,-3A3,3 0 0,1 3,0Z" style="opacity: 1; stroke-width: 0px; fill: rgb(29, 110, 243); fill-opacity: 1;"/><path class="point" transform="translate(110.63,140.48)" d="M3,0A3,3 0 1,1 0,-3A3,3 0 0,1 3,0Z" style="opacity: 1; stroke-width: 0px; fill: rgb(29, 110, 243); fill-opacity: 1;"/><path class="point" transform="translate(116.1,280.45)" d="M3,0A3,3 0 1,1 0,-3A3,3 0 0,1 3,0Z" style="opacity: 1; stroke-width: 0px; fill: rgb(29, 110, 243); fill-opacity: 1;"/><path class="point" transform="translate(121.58,250.95)" d="M3,0A3,3 0 1,1 0,-3A3,3 0 0,1 3,0Z" style="opacity: 1; stroke-width: 0px; fill: rgb(29, 110, 243); fill-opacity: 1;"/><path class="point" transform="translate(127.05,187.14)" d="M3,0A3,3 0 1,1 0,-3A3,3 0 0,1 3,0Z" style="opacity: 1; stroke-width: 0px; fill: rgb(29, 110, 243); fill-opacity: 1;"/><path class="point" transform="translate(132.53,192.28)" d="M3,0A3,3 0 1,1 0,-3A3,3 0 0,1 3,0Z" style="opacity: 1; stroke-width: 0px; fill: rgb(29, 110, 243); fill-opacity: 1;"/><path class="point" transform="translate(138,224.88)" d="M3,0A3,3 0 1,1 0,-3A3,3 0 0,1 3,0Z" style="opacity: 1; stroke-width: 0px; fill: rgb(29, 110, 243); fill-opacity: 1;"/><path class="point" transform="translate(143.48,177.88)" d="M3,0A3,3 0 1,1 0,-3A3,3 0 0,1 3,0Z" style="opacity: 1; stroke-width: 0px; fill: rgb(29, 110, 243); fill-opacity: 1;"/><path class="point" transform="translate(148.95,325.05)" d="M3,0A3,3 0 1,1 0,-3A3,3 0 0,1 3,0Z" style="opacity: 1; stroke-width: 0px; fill: rgb(29, 110, 243); fill-opacity: 1;"/><path class="point" transform="translate(154.43,256.78)" d="M3,0A3,3 0 1,1 0,-3A3,3 0 0,1 3,0Z" style="opacity: 1; stroke-width: 0px; fill: rgb(29, 110, 243); fill-opacity: 1;"/><path class="point" transform="translate(159.9,164.15)" d="M3,0A3,3 0 1,1 0,-3A3,3 0 0,1 3,0Z" style="opacity: 1; stroke-width: 0px; fill: rgb(29, 110, 243); fill-opacity: 1;"/><path class="point" transform="translate(165.38,166.55)" d="M3,0A3,3 0 1,1 0,-3A3,3 0 0,1 3,0Z" style="opacity: 1; stroke-width: 0px; fill: rgb(29, 110, 243); fill-opacity: 1;"/><path class="point" transform="translate(170.85,227.28)" d="M3,0A3,3 0 1,1 0,-3A3,3 0 0,1 3,0Z" style="opacity: 1; stroke-width: 0px; fill: rgb(29, 110, 243); fill-opacity: 1;"/><path class="point" transform="translate(176.33,23.15)" d="M3,0A3,3 0 1,1 0,-3A3,3 0 0,1 3,0Z" style="opacity: 1; stroke-width: 0px; fill: rgb(29, 110, 243); fill-opacity: 1;"/><path class="point" transform="translate(181.8,225.91)" d="M3,0A3,3 0 1,1 0,-3A3,3 0 0,1 3,0Z" style="opacity: 1; stroke-width: 0px; fill: rgb(29, 110, 243); fill-opacity: 1;"/><path class="point" transform="translate(187.28,307.21)" d="M3,0A3,3 0 1,1 0,-3A3,3 0 0,1 3,0Z" style="opacity: 1; stroke-width: 0px; fill: rgb(29, 110, 243); fill-opacity: 1;"/><path class="point" transform="translate(192.75,364.85)" d="M3,0A3,3 0 1,1 0,-3A3,3 0 0,1 3,0Z" style="opacity: 1; stroke-width: 0px; fill: rgb(29, 110, 243); fill-opacity: 1;"/><path class="point" transform="translate(198.23,287.32)" d="M3,0A3,3 0 1,1 0,-3A3,3 0 0,1 3,0Z" style="opacity: 1; stroke-width: 0px; fill: rgb(29, 110, 243); fill-opacity: 1;"/><path class="point" transform="translate(203.7,209.1)" d="M3,0A3,3 0 1,1 0,-3A3,3 0 0,1 3,0Z" style="opacity: 1; stroke-width: 0px; fill: rgb(29, 110, 243); fill-opacity: 1;"/><path class="point" transform="translate(209.18,206.01)" d="M3,0A3,3 0 1,1 0,-3A3,3 0 0,1 3,0Z" style="opacity: 1; stroke-width: 0px; fill: rgb(29, 110, 243); fill-opacity: 1;"/><path class="point" transform="translate(214.65,84.22)" d="M3,0A3,3 0 1,1 0,-3A3,3 0 0,1 3,0Z" style="opacity: 1; stroke-width: 0px; fill: rgb(29, 110, 243); fill-opacity: 1;"/><path class="point" transform="translate(220.13,194.34)" d="M3,0A3,3 0 1,1 0,-3A3,3 0 0,1 3,0Z" style="opacity: 1; stroke-width: 0px; fill: rgb(29, 110, 243); fill-opacity: 1;"/><path class="point" transform="translate(225.6,247.52)" d="M3,0A3,3 0 1,1 0,-3A3,3 0 0,1 3,0Z" style="opacity: 1; stroke-width: 0px; fill: rgb(29, 110, 243); fill-opacity: 1;"/><path class="point" transform="translate(231.08,280.11)" d="M3,0A3,3 0 1,1 0,-3A3,3 0 0,1 3,0Z" style="opacity: 1; stroke-width: 0px; fill: rgb(29, 110, 243); fill-opacity: 1;"/><path class="point" transform="translate(236.55,227.96)" d="M3,0A3,3 0 1,1 0,-3A3,3 0 0,1 3,0Z" style="opacity: 1; stroke-width: 0px; fill: rgb(29, 110, 243); fill-opacity: 1;"/><path class="point" transform="translate(242.03,136.36)" d="M3,0A3,3 0 1,1 0,-3A3,3 0 0,1 3,0Z" style="opacity: 1; stroke-width: 0px; fill: rgb(29, 110, 243); fill-opacity: 1;"/><path class="point" transform="translate(247.5,178.22)" d="M3,0A3,3 0 1,1 0,-3A3,3 0 0,1 3,0Z" style="opacity: 1; stroke-width: 0px; fill: rgb(29, 110, 243); fill-opacity: 1;"/><path class="point" transform="translate(252.98,238.26)" d="M3,0A3,3 0 1,1 0,-3A3,3 0 0,1 3,0Z" style="opacity: 1; stroke-width: 0px; fill: rgb(29, 110, 243); fill-opacity: 1;"/><path class="point" transform="translate(258.45,254.72)" d="M3,0A3,3 0 1,1 0,-3A3,3 0 0,1 3,0Z" style="opacity: 1; stroke-width: 0px; fill: rgb(29, 110, 243); fill-opacity: 1;"/><path class="point" transform="translate(263.93,314.42)" d="M3,0A3,3 0 1,1 0,-3A3,3 0 0,1 3,0Z" style="opacity: 1; stroke-width: 0px; fill: rgb(29, 110, 243); fill-opacity: 1;"/><path class="point" transform="translate(269.4,239.63)" d="M3,0A3,3 0 1,1 0,-3A3,3 0 0,1 3,0Z" style="opacity: 1; stroke-width: 0px; fill: rgb(29, 110, 243); fill-opacity: 1;"/><path class="point" transform="translate(274.88,133.96)" d="M3,0A3,3 0 1,1 0,-3A3,3 0 0,1 3,0Z" style="opacity: 1; stroke-width: 0px; fill: rgb(29, 110, 243); fill-opacity: 1;"/><path class="point" transform="translate(280.35,140.48)" d="M3,0A3,3 0 1,1 0,-3A3,3 0 0,1 3,0Z" style="opacity: 1; stroke-width: 0px; fill: rgb(29, 110, 243); fill-opacity: 1;"/><path class="point" transform="translate(285.83,105.83)" d="M3,0A3,3 0 1,1 0,-3A3,3 0 0,1 3,0Z" style="opacity: 1; stroke-width: 0px; fill: rgb(29, 110, 243); fill-opacity: 1;"/><path class="point" transform="translate(291.3,148.37)" d="M3,0A3,3 0 1,1 0,-3A3,3 0 0,1 3,0Z" style="opacity: 1; stroke-width: 0px; fill: rgb(29, 110, 243); fill-opacity: 1;"/><path class="point" transform="translate(296.78,309.27)" d="M3,0A3,3 0 1,1 0,-3A3,3 0 0,1 3,0Z" style="opacity: 1; stroke-width: 0px; fill: rgb(29, 110, 243); fill-opacity: 1;"/><path class="point" transform="translate(302.25,342.55)" d="M3,0A3,3 0 1,1 0,-3A3,3 0 0,1 3,0Z" style="opacity: 1; stroke-width: 0px; fill: rgb(29, 110, 243); fill-opacity: 1;"/><path class="point" transform="translate(307.73,225.56)" d="M3,0A3,3 0 1,1 0,-3A3,3 0 0,1 3,0Z" style="opacity: 1; stroke-width: 0px; fill: rgb(29, 110, 243); fill-opacity: 1;"/><path class="point" transform="translate(313.2,172.04)" d="M3,0A3,3 0 1,1 0,-3A3,3 0 0,1 3,0Z" style="opacity: 1; stroke-width: 0px; fill: rgb(29, 110, 243); fill-opacity: 1;"/><path class="point" transform="translate(318.68,234.14)" d="M3,0A3,3 0 1,1 0,-3A3,3 0 0,1 3,0Z" style="opacity: 1; stroke-width: 0px; fill: rgb(29, 110, 243); fill-opacity: 1;"/><path class="point" transform="translate(324.15,213.9)" d="M3,0A3,3 0 1,1 0,-3A3,3 0 0,1 3,0Z" style="opacity: 1; stroke-width: 0px; fill: rgb(29, 110, 243); fill-opacity: 1;"/><path class="point" transform="translate(329.63,145.63)" d="M3,0A3,3 0 1,1 0,-3A3,3 0 0,1 3,0Z" style="opacity: 1; stroke-width: 0px; fill: rgb(29, 110, 243); fill-opacity: 1;"/><path class="point" transform="translate(335.1,309.27)" d="M3,0A3,3 0 1,1 0,-3A3,3 0 0,1 3,0Z" style="opacity: 1; stroke-width: 0px; fill: rgb(29, 110, 243); fill-opacity: 1;"/><path class="point" transform="translate(340.58,347.7)" d="M3,0A3,3 0 1,1 0,-3A3,3 0 0,1 3,0Z" style="opacity: 1; stroke-width: 0px; fill: rgb(29, 110, 243); fill-opacity: 1;"/><path class="point" transform="translate(346.05,238.26)" d="M3,0A3,3 0 1,1 0,-3A3,3 0 0,1 3,0Z" style="opacity: 1; stroke-width: 0px; fill: rgb(29, 110, 243); fill-opacity: 1;"/><path class="point" transform="translate(351.53,166.55)" d="M3,0A3,3 0 1,1 0,-3A3,3 0 0,1 3,0Z" style="opacity: 1; stroke-width: 0px; fill: rgb(29, 110, 243); fill-opacity: 1;"/><path class="point" transform="translate(357,130.53)" d="M3,0A3,3 0 1,1 0,-3A3,3 0 0,1 3,0Z" style="opacity: 1; stroke-width: 0px; fill: rgb(29, 110, 243); fill-opacity: 1;"/><path class="point" transform="translate(362.48,67.41)" d="M3,0A3,3 0 1,1 0,-3A3,3 0 0,1 3,0Z" style="opacity: 1; stroke-width: 0px; fill: rgb(29, 110, 243); fill-opacity: 1;"/><path class="point" transform="translate(367.95,165.87)" d="M3,0A3,3 0 1,1 0,-3A3,3 0 0,1 3,0Z" style="opacity: 1; stroke-width: 0px; fill: rgb(29, 110, 243); fill-opacity: 1;"/><path class="point" transform="translate(373.43,309.62)" d="M3,0A3,3 0 1,1 0,-3A3,3 0 0,1 3,0Z" style="opacity: 1; stroke-width: 0px; fill: rgb(29, 110, 243); fill-opacity: 1;"/><path class="point" transform="translate(378.9,345.98)" d="M3,0A3,3 0 1,1 0,-3A3,3 0 0,1 3,0Z" style="opacity: 1; stroke-width: 0px; fill: rgb(29, 110, 243); fill-opacity: 1;"/><path class="point" transform="translate(384.38,217.33)" d="M3,0A3,3 0 1,1 0,-3A3,3 0 0,1 3,0Z" style="opacity: 1; stroke-width: 0px; fill: rgb(29, 110, 243); fill-opacity: 1;"/><path class="point" transform="translate(389.85,185.77)" d="M3,0A3,3 0 1,1 0,-3A3,3 0 0,1 3,0Z" style="opacity: 1; stroke-width: 0px; fill: rgb(29, 110, 243); fill-opacity: 1;"/><path class="point" transform="translate(395.33,192.63)" d="M3,0A3,3 0 1,1 0,-3A3,3 0 0,1 3,0Z" style="opacity: 1; stroke-width: 0px; fill: rgb(29, 110, 243); fill-opacity: 1;"/><path class="point" transform="translate(400.8,327.8)" d="M3,0A3,3 0 1,1 0,-3A3,3 0 0,1 3,0Z" style="opacity: 1; stroke-width: 0px; fill: rgb(29, 110, 243); fill-opacity: 1;"/><path class="point" transform="translate(406.28,249.23)" d="M3,0A3,3 0 1,1 0,-3A3,3 0 0,1 3,0Z" style="opacity: 1; stroke-width: 0px; fill: rgb(29, 110, 243); fill-opacity: 1;"/><path class="point" transform="translate(411.75,334.32)" d="M3,0A3,3 0 1,1 0,-3A3,3 0 0,1 3,0Z" style="opacity: 1; stroke-width: 0px; fill: rgb(29, 110, 243); fill-opacity: 1;"/><path class="point" transform="translate(417.23,359.36)" d="M3,0A3,3 0 1,1 0,-3A3,3 0 0,1 3,0Z" style="opacity: 1; stroke-width: 0px; fill: rgb(29, 110, 243); fill-opacity: 1;"/><path class="point" transform="translate(422.7,237.23)" d="M3,0A3,3 0 1,1 0,-3A3,3 0 0,1 3,0Z" style="opacity: 1; stroke-width: 0px; fill: rgb(29, 110, 243); fill-opacity: 1;"/><path class="point" transform="translate(428.18,160.38)" d="M3,0A3,3 0 1,1 0,-3A3,3 0 0,1 3,0Z" style="opacity: 1; stroke-width: 0px; fill: rgb(29, 110, 243); fill-opacity: 1;"/><path class="point" transform="translate(433.65,188.51)" d="M3,0A3,3 0 1,1 0,-3A3,3 0 0,1 3,0Z" style="opacity: 1; stroke-width: 0px; fill: rgb(29, 110, 243); fill-opacity: 1;"/><path class="point" transform="translate(439.13,214.24)" d="M3,0A3,3 0 1,1 0,-3A3,3 0 0,1 3,0Z" style="opacity: 1; stroke-width: 0px; fill: rgb(29, 110, 243); fill-opacity: 1;"/><path class="point" transform="translate(444.6,210.81)" d="M3,0A3,3 0 1,1 0,-3A3,3 0 0,1 3,0Z" style="opacity: 1; stroke-width: 0px; fill: rgb(29, 110, 243); fill-opacity: 1;"/><path class="point" transform="translate(450.08,312.7)" d="M3,0A3,3 0 1,1 0,-3A3,3 0 0,1 3,0Z" style="opacity: 1; stroke-width: 0px; fill: rgb(29, 110, 243); fill-opacity: 1;"/><path class="point" transform="translate(455.55,351.13)" d="M3,0A3,3 0 1,1 0,-3A3,3 0 0,1 3,0Z" style="opacity: 1; stroke-width: 0px; fill: rgb(29, 110, 243); fill-opacity: 1;"/><path class="point" transform="translate(461.03,245.46)" d="M3,0A3,3 0 1,1 0,-3A3,3 0 0,1 3,0Z" style="opacity: 1; stroke-width: 0px; fill: rgb(29, 110, 243); fill-opacity: 1;"/><path class="point" transform="translate(466.5,192.63)" d="M3,0A3,3 0 1,1 0,-3A3,3 0 0,1 3,0Z" style="opacity: 1; stroke-width: 0px; fill: rgb(29, 110, 243); fill-opacity: 1;"/><path class="point" transform="translate(471.97,149.4)" d="M3,0A3,3 0 1,1 0,-3A3,3 0 0,1 3,0Z" style="opacity: 1; stroke-width: 0px; fill: rgb(29, 110, 243); fill-opacity: 1;"/><path class="point" transform="translate(477.45,215.96)" d="M3,0A3,3 0 1,1 0,-3A3,3 0 0,1 3,0Z" style="opacity: 1; stroke-width: 0px; fill: rgb(29, 110, 243); fill-opacity: 1;"/><path class="point" transform="translate(482.92,236.54)" d="M3,0A3,3 0 1,1 0,-3A3,3 0 0,1 3,0Z" style="opacity: 1; stroke-width: 0px; fill: rgb(29, 110, 243); fill-opacity: 1;"/><path class="point" transform="translate(488.4,298.64)" d="M3,0A3,3 0 1,1 0,-3A3,3 0 0,1 3,0Z" style="opacity: 1; stroke-width: 0px; fill: rgb(29, 110, 243); fill-opacity: 1;"/><path class="point" transform="translate(493.87,350.78)" d="M3,0A3,3 0 1,1 0,-3A3,3 0 0,1 3,0Z" style="opacity: 1; stroke-width: 0px; fill: rgb(29, 110, 243); fill-opacity: 1;"/><path class="point" transform="translate(499.35,237.57)" d="M3,0A3,3 0 1,1 0,-3A3,3 0 0,1 3,0Z" style="opacity: 1; stroke-width: 0px; fill: rgb(29, 110, 243); fill-opacity: 1;"/><path class="point" transform="translate(504.82,161.41)" d="M3,0A3,3 0 1,1 0,-3A3,3 0 0,1 3,0Z" style="opacity: 1; stroke-width: 0px; fill: rgb(29, 110, 243); fill-opacity: 1;"/><path class="point" transform="translate(510.3,200.86)" d="M3,0A3,3 0 1,1 0,-3A3,3 0 0,1 3,0Z" style="opacity: 1; stroke-width: 0px; fill: rgb(29, 110, 243); fill-opacity: 1;"/><path class="point" transform="translate(515.77,217.33)" d="M3,0A3,3 0 1,1 0,-3A3,3 0 0,1 3,0Z" style="opacity: 1; stroke-width: 0px; fill: rgb(29, 110, 243); fill-opacity: 1;"/><path class="point" transform="translate(521.25,213.56)" d="M3,0A3,3 0 1,1 0,-3A3,3 0 0,1 3,0Z" style="opacity: 1; stroke-width: 0px; fill: rgb(29, 110, 243); fill-opacity: 1;"/><path class="point" transform="translate(526.72,310.99)" d="M3,0A3,3 0 1,1 0,-3A3,3 0 0,1 3,0Z" style="opacity: 1; stroke-width: 0px; fill: rgb(29, 110, 243); fill-opacity: 1;"/><path class="point" transform="translate(532.2,342.21)" d="M3,0A3,3 0 1,1 0,-3A3,3 0 0,1 3,0Z" style="opacity: 1; stroke-width: 0px; fill: rgb(29, 110, 243); fill-opacity: 1;"/><path class="point" transform="translate(537.67,251.64)" d="M3,0A3,3 0 1,1 0,-3A3,3 0 0,1 3,0Z" style="opacity: 1; stroke-width: 0px; fill: rgb(29, 110, 243); fill-opacity: 1;"/><path class="point" transform="translate(543.15,209.1)" d="M3,0A3,3 0 1,1 0,-3A3,3 0 0,1 3,0Z" style="opacity: 1; stroke-width: 0px; fill: rgb(29, 110, 243); fill-opacity: 1;"/><path class="point" transform="translate(548.62,218.36)" d="M3,0A3,3 0 1,1 0,-3A3,3 0 0,1 3,0Z" style="opacity: 1; stroke-width: 0px; fill: rgb(29, 110, 243); fill-opacity: 1;"/><path class="point" transform="translate(554.1,145.28)" d="M3,0A3,3 0 1,1 0,-3A3,3 0 0,1 3,0Z" style="opacity: 1; stroke-width: 0px; fill: rgb(29, 110, 243); fill-opacity: 1;"/><path class="point" transform="translate(559.57,147.34)" d="M3,0A3,3 0 1,1 0,-3A3,3 0 0,1 3,0Z" style="opacity: 1; stroke-width: 0px; fill: rgb(29, 110, 243); fill-opacity: 1;"/><path class="point" transform="translate(565.05,321.62)" d="M3,0A3,3 0 1,1 0,-3A3,3 0 0,1 3,0Z" style="opacity: 1; stroke-width: 0px; fill: rgb(29, 110, 243); fill-opacity: 1;"/><path class="point" transform="translate(570.52,336.72)" d="M3,0A3,3 0 1,1 0,-3A3,3 0 0,1 3,0Z" style="opacity: 1; stroke-width: 0px; fill: rgb(29, 110, 243); fill-opacity: 1;"/><path class="point" transform="translate(576,218.7)" d="M3,0A3,3 0 1,1 0,-3A3,3 0 0,1 3,0Z" style="opacity: 1; stroke-width: 0px; fill: rgb(29, 110, 243); fill-opacity: 1;"/><path class="point" transform="translate(581.47,214.24)" d="M3,0A3,3 0 1,1 0,-3A3,3 0 0,1 3,0Z" style="opacity: 1; stroke-width: 0px; fill: rgb(29, 110, 243); fill-opacity: 1;"/><path class="point" transform="translate(586.95,130.53)" d="M3,0A3,3 0 1,1 0,-3A3,3 0 0,1 3,0Z" style="opacity: 1; stroke-width: 0px; fill: rgb(29, 110, 243); fill-opacity: 1;"/><path class="point" transform="translate(592.42,206.35)" d="M3,0A3,3 0 1,1 0,-3A3,3 0 0,1 3,0Z" style="opacity: 1; stroke-width: 0px; fill: rgb(29, 110, 243); fill-opacity: 1;"/><path class="point" transform="translate(597.9,178.22)" d="M3,0A3,3 0 1,1 0,-3A3,3 0 0,1 3,0Z" style="opacity: 1; stroke-width: 0px; fill: rgb(29, 110, 243); fill-opacity: 1;"/><path class="point" transform="translate(603.37,289.72)" d="M3,0A3,3 0 1,1 0,-3A3,3 0 0,1 3,0Z" style="opacity: 1; stroke-width: 0px; fill: rgb(29, 110, 243); fill-opacity: 1;"/><path class="point" transform="translate(608.85,300.7)" d="M3,0A3,3 0 1,1 0,-3A3,3 0 0,1 3,0Z" style="opacity: 1; stroke-width: 0px; fill: rgb(29, 110, 243); fill-opacity: 1;"/><path class="point" transform="translate(614.32,220.76)" d="M3,0A3,3 0 1,1 0,-3A3,3 0 0,1 3,0Z" style="opacity: 1; stroke-width: 0px; fill: rgb(29, 110, 243); fill-opacity: 1;"/><path class="point" transform="translate(619.8,162.09)" d="M3,0A3,3 0 1,1 0,-3A3,3 0 0,1 3,0Z" style="opacity: 1; stroke-width: 0px; fill: rgb(29, 110, 243); fill-opacity: 1;"/><path class="point" transform="translate(625.27,219.73)" d="M3,0A3,3 0 1,1 0,-3A3,3 0 0,1 3,0Z" style="opacity: 1; stroke-width: 0px; fill: rgb(29, 110, 243); fill-opacity: 1;"/><path class="point" transform="translate(630.75,200.52)" d="M3,0A3,3 0 1,1 0,-3A3,3 0 0,1 3,0Z" style="opacity: 1; stroke-width: 0px; fill: rgb(29, 110, 243); fill-opacity: 1;"/><path class="point" transform="translate(636.22,137.05)" d="M3,0A3,3 0 1,1 0,-3A3,3 0 0,1 3,0Z" style="opacity: 1; stroke-width: 0px; fill: rgb(29, 110, 243); fill-opacity: 1;"/><path class="point" transform="translate(641.7,297.61)" d="M3,0A3,3 0 1,1 0,-3A3,3 0 0,1 3,0Z" style="opacity: 1; stroke-width: 0px; fill: rgb(29, 110, 243); fill-opacity: 1;"/><path class="point" transform="translate(647.17,309.96)" d="M3,0A3,3 0 1,1 0,-3A3,3 0 0,1 3,0Z" style="opacity: 1; stroke-width: 0px; fill: rgb(29, 110, 243); fill-opacity: 1;"/><path class="point" transform="translate(652.65,242.72)" d="M3,0A3,3 0 1,1 0,-3A3,3 0 0,1 3,0Z" style="opacity: 1; stroke-width: 0px; fill: rgb(29, 110, 243); fill-opacity: 1;"/><path class="point" transform="translate(658.12,69.46)" d="M3,0A3,3 0 1,1 0,-3A3,3 0 0,1 3,0Z" style="opacity: 1; stroke-width: 0px; fill: rgb(29, 110, 243); fill-opacity: 1;"/><path class="point" transform="translate(663.6,105.14)" d="M3,0A3,3 0 1,1 0,-3A3,3 0 0,1 3,0Z" style="opacity: 1; stroke-width: 0px; fill: rgb(29, 110, 243); fill-opacity: 1;"/><path class="point" transform="translate(669.07,164.5)" d="M3,0A3,3 0 1,1 0,-3A3,3 0 0,1 3,0Z" style="opacity: 1; stroke-width: 0px; fill: rgb(29, 110, 243); fill-opacity: 1;"/><path class="point" transform="translate(674.55,178.9)" d="M3,0A3,3 0 1,1 0,-3A3,3 0 0,1 3,0Z" style="opacity: 1; stroke-width: 0px; fill: rgb(29, 110, 243); fill-opacity: 1;"/><path class="point" transform="translate(680.02,288)" d="M3,0A3,3 0 1,1 0,-3A3,3 0 0,1 3,0Z" style="opacity: 1; stroke-width: 0px; fill: rgb(29, 110, 243); fill-opacity: 1;"/><path class="point" transform="translate(685.5,341.52)" d="M3,0A3,3 0 1,1 0,-3A3,3 0 0,1 3,0Z" style="opacity: 1; stroke-width: 0px; fill: rgb(29, 110, 243); fill-opacity: 1;"/><path class="point" transform="translate(690.97,260.56)" d="M3,0A3,3 0 1,1 0,-3A3,3 0 0,1 3,0Z" style="opacity: 1; stroke-width: 0px; fill: rgb(29, 110, 243); fill-opacity: 1;"/><path class="point" transform="translate(696.45,167.58)" d="M3,0A3,3 0 1,1 0,-3A3,3 0 0,1 3,0Z" style="opacity: 1; stroke-width: 0px; fill: rgb(29, 110, 243); fill-opacity: 1;"/><path class="point" transform="translate(701.92,170.67)" d="M3,0A3,3 0 1,1 0,-3A3,3 0 0,1 3,0Z" style="opacity: 1; stroke-width: 0px; fill: rgb(29, 110, 243); fill-opacity: 1;"/><path class="point" transform="translate(707.4,176.85)" d="M3,0A3,3 0 1,1 0,-3A3,3 0 0,1 3,0Z" style="opacity: 1; stroke-width: 0px; fill: rgb(29, 110, 243); fill-opacity: 1;"/><path class="point" transform="translate(712.87,198.12)" d="M3,0A3,3 0 1,1 0,-3A3,3 0 0,1 3,0Z" style="opacity: 1; stroke-width: 0px; fill: rgb(29, 110, 243); fill-opacity: 1;"/><path class="point" transform="translate(718.35,300.01)" d="M3,0A3,3 0 1,1 0,-3A3,3 0 0,1 3,0Z" style="opacity: 1; stroke-width: 0px; fill: rgb(29, 110, 243); fill-opacity: 1;"/><path class="point" transform="translate(723.82,330.89)" d="M3,0A3,3 0 1,1 0,-3A3,3 0 0,1 3,0Z" style="opacity: 1; stroke-width: 0px; fill: rgb(29, 110, 243); fill-opacity: 1;"/><path class="point" transform="translate(729.3,336.72)" d="M3,0A3,3 0 1,1 0,-3A3,3 0 0,1 3,0Z" style="opacity: 1; stroke-width: 0px; fill: rgb(29, 110, 243); fill-opacity: 1;"/><path class="point" transform="translate(734.77,206.69)" d="M3,0A3,3 0 1,1 0,-3A3,3 0 0,1 3,0Z" style="opacity: 1; stroke-width: 0px; fill: rgb(29, 110, 243); fill-opacity: 1;"/><path class="point" transform="translate(740.25,103.77)" d="M3,0A3,3 0 1,1 0,-3A3,3 0 0,1 3,0Z" style="opacity: 1; stroke-width: 0px; fill: rgb(29, 110, 243); fill-opacity: 1;"/><path class="point" transform="translate(745.72,159.69)" d="M3,0A3,3 0 1,1 0,-3A3,3 0 0,1 3,0Z" style="opacity: 1; stroke-width: 0px; fill: rgb(29, 110, 243); fill-opacity: 1;"/><path class="point" transform="translate(751.2,128.13)" d="M3,0A3,3 0 1,1 0,-3A3,3 0 0,1 3,0Z" style="opacity: 1; stroke-width: 0px; fill: rgb(29, 110, 243); fill-opacity: 1;"/><path class="point" transform="translate(756.67,284.57)" d="M3,0A3,3 0 1,1 0,-3A3,3 0 0,1 3,0Z" style="opacity: 1; stroke-width: 0px; fill: rgb(29, 110, 243); fill-opacity: 1;"/><path class="point" transform="translate(762.15,351.13)" d="M3,0A3,3 0 1,1 0,-3A3,3 0 0,1 3,0Z" style="opacity: 1; stroke-width: 0px; fill: rgb(29, 110, 243); fill-opacity: 1;"/><path class="point" transform="translate(767.62,222.48)" d="M3,0A3,3 0 1,1 0,-3A3,3 0 0,1 3,0Z" style="opacity: 1; stroke-width: 0px; fill: rgb(29, 110, 243); fill-opacity: 1;"/><path class="point" transform="translate(773.1,206.69)" d="M3,0A3,3 0 1,1 0,-3A3,3 0 0,1 3,0Z" style="opacity: 1; stroke-width: 0px; fill: rgb(29, 110, 243); fill-opacity: 1;"/><path class="point" transform="translate(778.57,213.9)" d="M3,0A3,3 0 1,1 0,-3A3,3 0 0,1 3,0Z" style="opacity: 1; stroke-width: 0px; fill: rgb(29, 110, 243); fill-opacity: 1;"/><path class="point" transform="translate(784.05,151.12)" d="M3,0A3,3 0 1,1 0,-3A3,3 0 0,1 3,0Z" style="opacity: 1; stroke-width: 0px; fill: rgb(29, 110, 243); fill-opacity: 1;"/><path class="point" transform="translate(789.52,179.93)" d="M3,0A3,3 0 1,1 0,-3A3,3 0 0,1 3,0Z" style="opacity: 1; stroke-width: 0px; fill: rgb(29, 110, 243); fill-opacity: 1;"/><path class="point" transform="translate(795,312.7)" d="M3,0A3,3 0 1,1 0,-3A3,3 0 0,1 3,0Z" style="opacity: 1; stroke-width: 0px; fill: rgb(29, 110, 243); fill-opacity: 1;"/><path class="point" transform="translate(800.47,340.83)" d="M3,0A3,3 0 1,1 0,-3A3,3 0 0,1 3,0Z" style="opacity: 1; stroke-width: 0px; fill: rgb(29, 110, 243); fill-opacity: 1;"/><path class="point" transform="translate(805.95,226.59)" d="M3,0A3,3 0 1,1 0,-3A3,3 0 0,1 3,0Z" style="opacity: 1; stroke-width: 0px; fill: rgb(29, 110, 243); fill-opacity: 1;"/><path class="point" transform="translate(811.42,147.34)" d="M3,0A3,3 0 1,1 0,-3A3,3 0 0,1 3,0Z" style="opacity: 1; stroke-width: 0px; fill: rgb(29, 110, 243); fill-opacity: 1;"/><path class="point" transform="translate(816.9,143.23)" d="M3,0A3,3 0 1,1 0,-3A3,3 0 0,1 3,0Z" style="opacity: 1; stroke-width: 0px; fill: rgb(29, 110, 243); fill-opacity: 1;"/><path class="point" transform="translate(822.37,124.7)" d="M3,0A3,3 0 1,1 0,-3A3,3 0 0,1 3,0Z" style="opacity: 1; stroke-width: 0px; fill: rgb(29, 110, 243); fill-opacity: 1;"/><path class="point" transform="translate(827.85,194.69)" d="M3,0A3,3 0 1,1 0,-3A3,3 0 0,1 3,0Z" style="opacity: 1; stroke-width: 0px; fill: rgb(29, 110, 243); fill-opacity: 1;"/><path class="point" transform="translate(833.32,268.79)" d="M3,0A3,3 0 1,1 0,-3A3,3 0 0,1 3,0Z" style="opacity: 1; stroke-width: 0px; fill: rgb(29, 110, 243); fill-opacity: 1;"/><path class="point" transform="translate(838.8,308.59)" d="M3,0A3,3 0 1,1 0,-3A3,3 0 0,1 3,0Z" style="opacity: 1; stroke-width: 0px; fill: rgb(29, 110, 243); fill-opacity: 1;"/><path class="point" transform="translate(844.27,205.66)" d="M3,0A3,3 0 1,1 0,-3A3,3 0 0,1 3,0Z" style="opacity: 1; stroke-width: 0px; fill: rgb(29, 110, 243); fill-opacity: 1;"/><path class="point" transform="translate(849.75,56.08)" d="M3,0A3,3 0 1,1 0,-3A3,3 0 0,1 3,0Z" style="opacity: 1; stroke-width: 0px; fill: rgb(29, 110, 243); fill-opacity: 1;"/><path class="point" transform="translate(855.22,146.66)" d="M3,0A3,3 0 1,1 0,-3A3,3 0 0,1 3,0Z" style="opacity: 1; stroke-width: 0px; fill: rgb(29, 110, 243); fill-opacity: 1;"/><path class="point" transform="translate(860.7,66.38)" d="M3,0A3,3 0 1,1 0,-3A3,3 0 0,1 3,0Z" style="opacity: 1; stroke-width: 0px; fill: rgb(29, 110, 243); fill-opacity: 1;"/><path class="point" transform="translate(866.17,118.18)" d="M3,0A3,3 0 1,1 0,-3A3,3 0 0,1 3,0Z" style="opacity: 1; stroke-width: 0px; fill: rgb(29, 110, 243); fill-opacity: 1;"/><path class="point" transform="translate(871.65,284.57)" d="M3,0A3,3 0 1,1 0,-3A3,3 0 0,1 3,0Z" style="opacity: 1; stroke-width: 0px; fill: rgb(29, 110, 243); fill-opacity: 1;"/><path class="point" transform="translate(877.12,225.22)" d="M3,0A3,3 0 1,1 0,-3A3,3 0 0,1 3,0Z" style="opacity: 1; stroke-width: 0px; fill: rgb(29, 110, 243); fill-opacity: 1;"/><path class="point" transform="translate(882.6,193.66)" d="M3,0A3,3 0 1,1 0,-3A3,3 0 0,1 3,0Z" style="opacity: 1; stroke-width: 0px; fill: rgb(29, 110, 243); fill-opacity: 1;"/></g><g class="text"/></g></g></g></g><path class="xlines-above crisp" d="M66,418.5H1000" style="fill: none; stroke-width: 1px; stroke: rgb(0, 0, 0); stroke-opacity: 1;"/><path class="ylines-above crisp" d="M66.5,30V418" style="fill: none; stroke-width: 1px; stroke: rgb(0, 0, 0); stroke-opacity: 1;"/><g class="overlines-above"/><g class="xaxislayer-above"><g class="xtick"><text text-anchor="end" x="0" y="435.8" transform="translate(117.4,0) rotate(-30,0,428.8)" style="font-family: Arial; font-size: 14px; fill: rgb(42, 63, 95); fill-opacity: 1; white-space: pre; opacity: 1;">May 2024</text></g><g class="xtick"><text text-anchor="end" x="0" y="435.8" style="font-family: Arial; font-size: 14px; fill: rgb(42, 63, 95); fill-opacity: 1; white-space: pre; opacity: 1;" transform="translate(287.13,0) rotate(-30,0,428.8)">Jun 2024</text></g><g class="xtick"><text text-anchor="end" x="0" y="435.8" style="font-family: Arial; font-size: 14px; fill: rgb(42, 63, 95); fill-opacity: 1; white-space: pre; opacity: 1;" transform="translate(451.38,0) rotate(-30,0,428.8)">Jul 2024</text></g><g class="xtick"><text text-anchor="end" x="0" y="435.8" style="font-family: Arial; font-size: 14px; fill: rgb(42, 63, 95); fill-opacity: 1; white-space: pre; opacity: 1;" transform="translate(621.1,0) rotate(-30,0,428.8)">Aug 2024</text></g><g class="xtick"><text text-anchor="end" x="0" y="435.8" style="font-family: Arial; font-size: 14px; fill: rgb(42, 63, 95); fill-opacity: 1; white-space: pre; opacity: 1;" transform="translate(790.82,0) rotate(-30,0,428.8)">Sep 2024</text></g><g class="xtick"><text text-anchor="end" x="0" y="435.8" style="font-family: Arial; font-size: 14px; fill: rgb(42, 63, 95); fill-opacity: 1; white-space: pre; opacity: 1;" transform="translate(955.07,0) rotate(-30,0,428.8)">Oct 2024</text></g></g><g class="yaxislayer-above"><g class="ytick"><text text-anchor="end" x="63.2" y="4.8999999999999995" transform="translate(0,413.38)" style="font-family: Arial; font-size: 14px; fill: rgb(42, 63, 95); fill-opacity: 1; white-space: pre; opacity: 1;">0</text></g><g class="ytick"><text text-anchor="end" x="63.2" y="4.8999999999999995" style="font-family: Arial; font-size: 14px; fill: rgb(42, 63, 95); fill-opacity: 1; white-space: pre; opacity: 1;" transform="translate(0,344.76)">200</text></g><g class="ytick"><text text-anchor="end" x="63.2" y="4.8999999999999995" style="font-family: Arial; font-size: 14px; fill: rgb(42, 63, 95); fill-opacity: 1; white-space: pre; opacity: 1;" transform="translate(0,276.15)">400</text></g><g class="ytick"><text text-anchor="end" x="63.2" y="4.8999999999999995" style="font-family: Arial; font-size: 14px; fill: rgb(42, 63, 95); fill-opacity: 1; white-space: pre; opacity: 1;" transform="translate(0,207.53)">600</text></g><g class="ytick"><text text-anchor="end" x="63.2" y="4.8999999999999995" style="font-family: Arial; font-size: 14px; fill: rgb(42, 63, 95); fill-opacity: 1; white-space: pre; opacity: 1;" transform="translate(0,138.92000000000002)">800</text></g><g class="ytick"><text text-anchor="end" x="63.2" y="4.8999999999999995" style="font-family: Arial; font-size: 14px; fill: rgb(42, 63, 95); fill-opacity: 1; white-space: pre; opacity: 1;" transform="translate(0,70.3)">1000</text></g></g><g class="overaxes-above"/></g></g><g class="polarlayer"/><g class="smithlayer"/><g class="ternarylayer"/><g class="geolayer"/><g class="funnelarealayer"/><g class="pielayer"/><g class="iciclelayer"/><g class="treemaplayer"/><g class="sunburstlayer"/><g class="glimages"/><defs id="topdefs-0a3690"><g class="clips"/></defs><g class="layer-above"><g class="imagelayer"/><g class="shapelayer"/></g><g class="infolayer"><g class="g-gtitle"><text class="gtitle" x="50" y="15" text-anchor="start" dy="0em" style="opacity: 1; font-family: Arial; font-size: 28px; fill: rgb(42, 63, 95); fill-opacity: 1; white-space: pre;">Job Posting Trends Over Time</text></g><g class="g-xtitle" transform="translate(0,-3.0707031250000227)"><text class="xtitle" x="533.5" y="499.070703125" text-anchor="middle" style="opacity: 1; font-family: Arial; font-size: 18px; fill: rgb(42, 63, 95); fill-opacity: 1; white-space: pre;">Month</text></g><g class="g-ytitle" transform="translate(10.6123046875,0)"><text class="ytitle" transform="rotate(-90,6.387500000000003,224)" x="6.387500000000003" y="224" text-anchor="middle" style="opacity: 1; font-family: Arial; font-size: 18px; fill: rgb(42, 63, 95); fill-opacity: 1; white-space: pre;">Number of Job Postings</text></g></g></svg>