<svg class="main-svg" xmlns="http://www.w3.org/2000/svg" xmlns:xlink="http://www.w3.org/1999/xlink" width="1000" height="500" style="" viewBox="0 0 1000 500"><rect x="0" y="0" width="1000" height="500" style="fill: rgb(211, 211, 211); fill-opacity: 1;"/><defs id="defs-2b14c6"><g class="clips"><clipPath id="clip2b14c6xyplot" class="plotclip"><rect width="840" height="306"/></clipPath><clipPath class="axesclip" id="clip2b14c6x"><rect x="80" y="0" width="840" height="500"/></clipPath><clipPath class="axesclip" id="clip2b14c6y"><rect x="0" y="100" width="1000" height="306"/></clipPath><clipPath class="axesclip" id="clip2b14c6xy"><rect x="80" y="100" width="840" height="306"/></clipPath></g><g class="gradients"/><g class="patterns"/></defs><g class="bglayer"><rect class="bg" x="80" y="100" width="840" height="306" style="fill: rgb(255, 255, 255); fill-opacity: 1; stroke-width: 0;"/></g><g class="layer-below"><g class="imagelayer"/><g class="shapelayer"/></g><g class="cartesianlayer"><g class="subplot xy"><g class="layer-subplot"><g class="shapelayer"/><g class="imagelayer"/></g><g class="minor-gridlayer"><g class="x"/><g class="y"/></g><g class="gridlayer"><g class="x"><path class="xgrid crisp" transform="translate(125.75,0)" d="M0,100v306" style="stroke: rgb(255, 255, 255); stroke-opacity: 1; stroke-width: 1px;"/><path class="xgrid crisp" transform="translate(278.4,0)" d="M0,100v306" style="stroke: rgb(255, 255, 255); stroke-opacity: 1; stroke-width: 1px;"/><path class="xgrid crisp" transform="translate(426.13,0)" d="M0,100v306" style="stroke: rgb(255, 255, 255); stroke-opacity: 1; stroke-width: 1px;"/><path class="xgrid crisp" transform="translate(578.79,0)" d="M0,100v306" style="stroke: rgb(255, 255, 255); stroke-opacity: 1; stroke-width: 1px;"/><path class="xgrid crisp" transform="translate(731.44,0)" d="M0,100v306" style="stroke: rgb(255, 255, 255); stroke-opacity: 1; stroke-width: 1px;"/><path class="xgrid crisp" transform="translate(879.17,0)" d="M0,100v306" style="stroke: rgb(255, 255, 255); stroke-opacity: 1; stroke-width: 1px;"/></g><g class="y"><path class="ygrid crisp" transform="translate(0,347.68)" d="M80,0h840" style="stroke: rgb(211, 211, 211); stroke-opacity: 1; stroke-width: 1px;"/><path class="ygrid crisp" transform="translate(0,293.88)" d="M80,0h840" style="stroke: rgb(211, 211, 211); stroke-opacity: 1; stroke-width: 1px;"/><path class="ygrid crisp" transform="translate(0,240.09)" d="M80,0h840" style="stroke: rgb(211, 211, 211); stroke-opacity: 1; stroke-width: 1px;"/><path class="ygrid crisp" transform="translate(0,186.29000000000002)" d="M80,0h840" style="stroke: rgb(211, 211, 211); stroke-opacity: 1; stroke-width: 1px;"/><path class="ygrid crisp" transform="translate(0,132.5)" d="M80,0h840" style="stroke: rgb(211, 211, 211); stroke-opacity: 1; stroke-width: 1px;"/></g></g><g class="zerolinelayer"><path class="yzl zl crisp" transform="translate(0,401.47)" d="M80,0h840" style="stroke: rgb(255, 255, 255); stroke-opacity: 1; stroke-width: 2px;"/></g><g class="layer-between"><g class="shapelayer"/><g class="imagelayer"/></g><path class="xlines-below"/><path class="ylines-below"/><g class="overlines-below"/><g class="xaxislayer-below"/><g class="yaxislayer-below"/><g class="overaxes-below"/><g class="overplot"><g class="xy" transform="translate(80,100)" clip-path="url(#clip2b14c6xyplot)"><g class="scatterlayer mlayer"><g class="trace scatter traceaf516d" style="stroke-miterlimit: 2; opacity: 1;"><g class="fills"/><g class="errorbars"/><g class="lines"><path class="js-line" d="M45.75,165.37L50.67,183.93L55.6,118.84L60.52,147.35L65.45,258.71L70.37,256.02L75.3,162.68L80.22,174.79L85.14,134.98L90.07,140.36L94.99,141.7L99.92,111.04L104.84,220.78L109.77,197.65L114.69,147.62L119.62,151.66L124.54,177.21L129.46,140.36L134.39,255.75L139.31,202.22L144.24,129.6L149.16,131.48L154.09,179.09L159.01,19.05L163.93,178.01L168.86,241.76L173.78,286.95L183.63,164.83L188.56,162.41L193.48,66.93L198.4,153.27L203.33,194.96L208.25,220.51L213.18,179.63L218.1,107.81L223.03,140.63L227.95,187.7L232.87,200.61L237.8,247.41L242.72,188.77L247.65,105.93L252.57,111.04L257.5,83.87L262.42,117.23L267.35,243.38L272.27,269.47L277.19,177.75L282.12,135.79L287.04,184.47L291.97,168.6L296.89,115.07L301.82,243.38L306.74,273.5L311.66,187.7L316.59,131.48L321.51,103.24L326.44,53.75L331.36,130.94L336.29,243.64L341.21,272.16L346.13,171.29L351.06,146.54L355.98,151.92L360.91,257.9L365.83,196.31L370.76,263.01L375.68,282.65L380.61,186.89L385.53,126.64L395.38,168.87L400.3,166.18L405.23,246.07L410.15,276.19L415.08,193.35L420,151.92L424.92,118.03L429.85,170.21L434.77,186.35L439.7,235.04L444.62,275.92L449.55,187.16L454.47,127.45L459.39,158.38L464.32,171.29L469.24,168.33L474.17,244.72L479.09,269.2L484.02,198.19L488.94,164.83L493.87,172.1L498.79,114.81L503.71,116.42L508.64,253.06L513.56,264.89L518.49,172.37L523.41,168.87L528.34,103.24L533.26,162.68L538.18,140.63L543.11,228.04L548.03,236.65L552.96,173.98L557.88,127.99L562.81,173.17L567.73,158.11L572.65,108.35L577.58,234.23L582.5,243.91L587.43,191.19L592.35,55.36L597.28,83.34L602.2,129.87L607.13,141.17L612.05,226.7L616.97,268.66L626.82,132.29L631.75,134.71L636.67,139.55L641.6,156.23L646.52,236.11L651.44,260.32L656.37,264.89L661.29,162.95L666.22,82.26L671.14,126.1L676.07,101.36L680.99,224.01L685.91,276.19L690.84,175.33L695.76,162.95L700.69,168.6L705.61,119.38L710.54,141.97L715.46,246.07L720.38,268.12L725.31,178.55L730.23,116.42L735.16,113.19L740.08,98.67L749.93,211.64L754.86,242.84L759.78,162.15L764.7,44.87L769.63,115.88L774.55,52.94L779.48,93.56L784.4,224.01L789.33,177.48L794.25,152.73" style="vector-effect: none; fill: none; stroke: rgb(29, 110, 243); stroke-opacity: 1; stroke-width: 2px; opacity: 1;"/></g><g class="points"><path class="point" transform="translate(45.75,165.37)" d="M3,0A3,3 0 1,1 0,-3A3,3 0 0,1 3,0Z" style="opacity: 1; stroke-width: 0px; fill: rgb(29, 110, 243); fill-opacity: 1;"/><path class="point" transform="translate(50.67,183.93)" d="M3,0A3,3 0 1,1 0,-3A3,3 0 0,1 3,0Z" style="opacity: 1; stroke-width: 0px; fill: rgb(29, 110, 243); fill-opacity: 1;"/><path class="point" transform="translate(55.6,118.84)" d="M3,0A3,3 0 1,1 0,-3A3,3 0 0,1 3,0Z" style="opacity: 1; stroke-width: 0px; fill: rgb(29, 110, 243); fill-opacity: 1;"/><path class="point" transform="translate(60.52,147.35)" d="M3,0A3,3 0 1,1 0,-3A3,3 0 0,1 3,0Z" style="opacity: 1; stroke-width: 0px; fill: rgb(29, 110, 243); fill-opacity: 1;"/><path class="point" transform="translate(65.45,258.71)" d="M3,0A3,3 0 1,1 0,-3A3,3 0 0,1 3,0Z" style="opacity: 1; stroke-width: 0px; fill: rgb(29, 110, 243); fill-opacity: 1;"/><path class="point" transform="translate(70.37,256.02)" d="M3,0A3,3 0 1,1 0,-3A3,3 0 0,1 3,0Z" style="opacity: 1; stroke-width: 0px; fill: rgb(29, 110, 243); fill-opacity: 1;"/><path class="point" transform="translate(75.3,162.68)" d="M3,0A3,3 0 1,1 0,-3A3,3 0 0,1 3,0Z" style="opacity: 1; stroke-width: 0px; fill: rgb(29, 110, 243); fill-opacity: 1;"/><path class="point" transform="translate(80.22,174.79)" d="M3,0A3,3 0 1,1 0,-3A3,3 0 0,1 3,0Z" style="opacity: 1; stroke-width: 0px; fill: rgb(29, 110, 243); fill-opacity: 1;"/><path class="point" transform="translate(85.14,134.98)" d="M3,0A3,3 0 1,1 0,-3A3,3 0 0,1 3,0Z" style="opacity: 1; stroke-width: 0px; fill: rgb(29, 110, 243); fill-opacity: 1;"/><path class="point" transform="translate(90.07,140.36)" d="M3,0A3,3 0 1,1 0,-3A3,3 0 0,1 3,0Z" style="opacity: 1; stroke-width: 0px; fill: rgb(29, 110, 243); fill-opacity: 1;"/><path class="point" transform="translate(94.99,141.7)" d="M3,0A3,3 0 1,1 0,-3A3,3 0 0,1 3,0Z" style="opacity: 1; stroke-width: 0px; fill: rgb(29, 110, 243); fill-opacity: 1;"/><path class="point" transform="translate(99.92,111.04)" d="M3,0A3,3 0 1,1 0,-3A3,3 0 0,1 3,0Z" style="opacity: 1; stroke-width: 0px; fill: rgb(29, 110, 243); fill-opacity: 1;"/><path class="point" transform="translate(104.84,220.78)" d="M3,0A3,3 0 1,1 0,-3A3,3 0 0,1 3,0Z" style="opacity: 1; stroke-width: 0px; fill: rgb(29, 110, 243); fill-opacity: 1;"/><path class="point" transform="translate(109.77,197.65)" d="M3,0A3,3 0 1,1 0,-3A3,3 0 0,1 3,0Z" style="opacity: 1; stroke-width: 0px; fill: rgb(29, 110, 243); fill-opacity: 1;"/><path class="point" transform="translate(114.69,147.62)" d="M3,0A3,3 0 1,1 0,-3A3,3 0 0,1 3,0Z" style="opacity: 1; stroke-width: 0px; fill: rgb(29, 110, 243); fill-opacity: 1;"/><path class="point" transform="translate(119.62,151.66)" d="M3,0A3,3 0 1,1 0,-3A3,3 0 0,1 3,0Z" style="opacity: 1; stroke-width: 0px; fill: rgb(29, 110, 243); fill-opacity: 1;"/><path class="point" transform="translate(124.54,177.21)" d="M3,0A3,3 0 1,1 0,-3A3,3 0 0,1 3,0Z" style="opacity: 1; stroke-width: 0px; fill: rgb(29, 110, 243); fill-opacity: 1;"/><path class="point" transform="translate(129.46,140.36)" d="M3,0A3,3 0 1,1 0,-3A3,3 0 0,1 3,0Z" style="opacity: 1; stroke-width: 0px; fill: rgb(29, 110, 243); fill-opacity: 1;"/><path class="point" transform="translate(134.39,255.75)" d="M3,0A3,3 0 1,1 0,-3A3,3 0 0,1 3,0Z" style="opacity: 1; stroke-width: 0px; fill: rgb(29, 110, 243); fill-opacity: 1;"/><path class="point" transform="translate(139.31,202.22)" d="M3,0A3,3 0 1,1 0,-3A3,3 0 0,1 3,0Z" style="opacity: 1; stroke-width: 0px; fill: rgb(29, 110, 243); fill-opacity: 1;"/><path class="point" transform="translate(144.24,129.6)" d="M3,0A3,3 0 1,1 0,-3A3,3 0 0,1 3,0Z" style="opacity: 1; stroke-width: 0px; fill: rgb(29, 110, 243); fill-opacity: 1;"/><path class="point" transform="translate(149.16,131.48)" d="M3,0A3,3 0 1,1 0,-3A3,3 0 0,1 3,0Z" style="opacity: 1; stroke-width: 0px; fill: rgb(29, 110, 243); fill-opacity: 1;"/><path class="point" transform="translate(154.09,179.09)" d="M3,0A3,3 0 1,1 0,-3A3,3 0 0,1 3,0Z" style="opacity: 1; stroke-width: 0px; fill: rgb(29, 110, 243); fill-opacity: 1;"/><path class="point" transform="translate(159.01,19.05)" d="M3,0A3,3 0 1,1 0,-3A3,3 0 0,1 3,0Z" style="opacity: 1; stroke-width: 0px; fill: rgb(29, 110, 243); fill-opacity: 1;"/><path class="point" transform="translate(163.93,178.01)" d="M3,0A3,3 0 1,1 0,-3A3,3 0 0,1 3,0Z" style="opacity: 1; stroke-width: 0px; fill: rgb(29, 110, 243); fill-opacity: 1;"/><path class="point" transform="translate(168.86,241.76)" d="M3,0A3,3 0 1,1 0,-3A3,3 0 0,1 3,0Z" style="opacity: 1; stroke-width: 0px; fill: rgb(29, 110, 243); fill-opacity: 1;"/><path class="point" transform="translate(173.78,286.95)" d="M3,0A3,3 0 1,1 0,-3A3,3 0 0,1 3,0Z" style="opacity: 1; stroke-width: 0px; fill: rgb(29, 110, 243); fill-opacity: 1;"/><path class="point" transform="translate(178.71,226.16)" d="M3,0A3,3 0 1,1 0,-3A3,3 0 0,1 3,0Z" style="opacity: 1; stroke-width: 0px; fill: rgb(29, 110, 243); fill-opacity: 1;"/><path class="point" transform="translate(183.63,164.83)" d="M3,0A3,3 0 1,1 0,-3A3,3 0 0,1 3,0Z" style="opacity: 1; stroke-width: 0px; fill: rgb(29, 110, 243); fill-opacity: 1;"/><path class="point" transform="translate(188.56,162.41)" d="M3,0A3,3 0 1,1 0,-3A3,3 0 0,1 3,0Z" style="opacity: 1; stroke-width: 0px; fill: rgb(29, 110, 243); fill-opacity: 1;"/><path class="point" transform="translate(193.48,66.93)" d="M3,0A3,3 0 1,1 0,-3A3,3 0 0,1 3,0Z" style="opacity: 1; stroke-width: 0px; fill: rgb(29, 110, 243); fill-opacity: 1;"/><path class="point" transform="translate(198.4,153.27)" d="M3,0A3,3 0 1,1 0,-3A3,3 0 0,1 3,0Z" style="opacity: 1; stroke-width: 0px; fill: rgb(29, 110, 243); fill-opacity: 1;"/><path class="point" transform="translate(203.33,194.96)" d="M3,0A3,3 0 1,1 0,-3A3,3 0 0,1 3,0Z" style="opacity: 1; stroke-width: 0px; fill: rgb(29, 110, 243); fill-opacity: 1;"/><path class="point" transform="translate(208.25,220.51)" d="M3,0A3,3 0 1,1 0,-3A3,3 0 0,1 3,0Z" style="opacity: 1; stroke-width: 0px; fill: rgb(29, 110, 243); fill-opacity: 1;"/><path class="point" transform="translate(213.18,179.63)" d="M3,0A3,3 0 1,1 0,-3A3,3 0 0,1 3,0Z" style="opacity: 1; stroke-width: 0px; fill: rgb(29, 110, 243); fill-opacity: 1;"/><path class="point" transform="translate(218.1,107.81)" d="M3,0A3,3 0 1,1 0,-3A3,3 0 0,1 3,0Z" style="opacity: 1; stroke-width: 0px; fill: rgb(29, 110, 243); fill-opacity: 1;"/><path class="point" transform="translate(223.03,140.63)" d="M3,0A3,3 0 1,1 0,-3A3,3 0 0,1 3,0Z" style="opacity: 1; stroke-width: 0px; fill: rgb(29, 110, 243); fill-opacity: 1;"/><path class="point" transform="translate(227.95,187.7)" d="M3,0A3,3 0 1,1 0,-3A3,3 0 0,1 3,0Z" style="opacity: 1; stroke-width: 0px; fill: rgb(29, 110, 243); fill-opacity: 1;"/><path class="point" transform="translate(232.87,200.61)" d="M3,0A3,3 0 1,1 0,-3A3,3 0 0,1 3,0Z" style="opacity: 1; stroke-width: 0px; fill: rgb(29, 110, 243); fill-opacity: 1;"/><path class="point" transform="translate(237.8,247.41)" d="M3,0A3,3 0 1,1 0,-3A3,3 0 0,1 3,0Z" style="opacity: 1; stroke-width: 0px; fill: rgb(29, 110, 243); fill-opacity: 1;"/><path class="point" transform="translate(242.72,188.77)" d="M3,0A3,3 0 1,1 0,-3A3,3 0 0,1 3,0Z" style="opacity: 1; stroke-width: 0px; fill: rgb(29, 110, 243); fill-opacity: 1;"/><path class="point" transform="translate(247.65,105.93)" d="M3,0A3,3 0 1,1 0,-3A3,3 0 0,1 3,0Z" style="opacity: 1; stroke-width: 0px; fill: rgb(29, 110, 243); fill-opacity: 1;"/><path class="point" transform="translate(252.57,111.04)" d="M3,0A3,3 0 1,1 0,-3A3,3 0 0,1 3,0Z" style="opacity: 1; stroke-width: 0px; fill: rgb(29, 110, 243); fill-opacity: 1;"/><path class="point" transform="translate(257.5,83.87)" d="M3,0A3,3 0 1,1 0,-3A3,3 0 0,1 3,0Z" style="opacity: 1; stroke-width: 0px; fill: rgb(29, 110, 243); fill-opacity: 1;"/><path class="point" transform="translate(262.42,117.23)" d="M3,0A3,3 0 1,1 0,-3A3,3 0 0,1 3,0Z" style="opacity: 1; stroke-width: 0px; fill: rgb(29, 110, 243); fill-opacity: 1;"/><path class="point" transform="translate(267.35,243.38)" d="M3,0A3,3 0 1,1 0,-3A3,3 0 0,1 3,0Z" style="opacity: 1; stroke-width: 0px; fill: rgb(29, 110, 243); fill-opacity: 1;"/><path class="point" transform="translate(272.27,269.47)" d="M3,0A3,3 0 1,1 0,-3A3,3 0 0,1 3,0Z" style="opacity: 1; stroke-width: 0px; fill: rgb(29, 110, 243); fill-opacity: 1;"/><path class="point" transform="translate(277.19,177.75)" d="M3,0A3,3 0 1,1 0,-3A3,3 0 0,1 3,0Z" style="opacity: 1; stroke-width: 0px; fill: rgb(29, 110, 243); fill-opacity: 1;"/><path class="point" transform="translate(282.12,135.79)" d="M3,0A3,3 0 1,1 0,-3A3,3 0 0,1 3,0Z" style="opacity: 1; stroke-width: 0px; fill: rgb(29, 110, 243); fill-opacity: 1;"/><path class="point" transform="translate(287.04,184.47)" d="M3,0A3,3 0 1,1 0,-3A3,3 0 0,1 3,0Z" style="opacity: 1; stroke-width: 0px; fill: rgb(29, 110, 243); fill-opacity: 1;"/><path class="point" transform="translate(291.97,168.6)" d="M3,0A3,3 0 1,1 0,-3A3,3 0 0,1 3,0Z" style="opacity: 1; stroke-width: 0px; fill: rgb(29, 110, 243); fill-opacity: 1;"/><path class="point" transform="translate(296.89,115.07)" d="M3,0A3,3 0 1,1 0,-3A3,3 0 0,1 3,0Z" style="opacity: 1; stroke-width: 0px; fill: rgb(29, 110, 243); fill-opacity: 1;"/><path class="point" transform="translate(301.82,243.38)" d="M3,0A3,3 0 1,1 0,-3A3,3 0 0,1 3,0Z" style="opacity: 1; stroke-width: 0px; fill: rgb(29, 110, 243); fill-opacity: 1;"/><path class="point" transform="translate(306.74,273.5)" d="M3,0A3,3 0 1,1 0,-3A3,3 0 0,1 3,0Z" style="opacity: 1; stroke-width: 0px; fill: rgb(29, 110, 243); fill-opacity: 1;"/><path class="point" transform="translate(311.66,187.7)" d="M3,0A3,3 0 1,1 0,-3A3,3 0 0,1 3,0Z" style="opacity: 1; stroke-width: 0px; fill: rgb(29, 110, 243); fill-opacity: 1;"/><path class="point" transform="translate(316.59,131.48)" d="M3,0A3,3 0 1,1 0,-3A3,3 0 0,1 3,0Z" style="opacity: 1; stroke-width: 0px; fill: rgb(29, 110, 243); fill-opacity: 1;"/><path class="point" transform="translate(321.51,103.24)" d="M3,0A3,3 0 1,1 0,-3A3,3 0 0,1 3,0Z" style="opacity: 1; stroke-width: 0px; fill: rgb(29, 110, 243); fill-opacity: 1;"/><path class="point" transform="translate(326.44,53.75)" d="M3,0A3,3 0 1,1 0,-3A3,3 0 0,1 3,0Z" style="opacity: 1; stroke-width: 0px; fill: rgb(29, 110, 243); fill-opacity: 1;"/><path class="point" transform="translate(331.36,130.94)" d="M3,0A3,3 0 1,1 0,-3A3,3 0 0,1 3,0Z" style="opacity: 1; stroke-width: 0px; fill: rgb(29, 110, 243); fill-opacity: 1;"/><path class="point" transform="translate(336.29,243.64)" d="M3,0A3,3 0 1,1 0,-3A3,3 0 0,1 3,0Z" style="opacity: 1; stroke-width: 0px; fill: rgb(29, 110, 243); fill-opacity: 1;"/><path class="point" transform="translate(341.21,272.16)" d="M3,0A3,3 0 1,1 0,-3A3,3 0 0,1 3,0Z" style="opacity: 1; stroke-width: 0px; fill: rgb(29, 110, 243); fill-opacity: 1;"/><path class="point" transform="translate(346.13,171.29)" d="M3,0A3,3 0 1,1 0,-3A3,3 0 0,1 3,0Z" style="opacity: 1; stroke-width: 0px; fill: rgb(29, 110, 243); fill-opacity: 1;"/><path class="point" transform="translate(351.06,146.54)" d="M3,0A3,3 0 1,1 0,-3A3,3 0 0,1 3,0Z" style="opacity: 1; stroke-width: 0px; fill: rgb(29, 110, 243); fill-opacity: 1;"/><path class="point" transform="translate(355.98,151.92)" d="M3,0A3,3 0 1,1 0,-3A3,3 0 0,1 3,0Z" style="opacity: 1; stroke-width: 0px; fill: rgb(29, 110, 243); fill-opacity: 1;"/><path class="point" transform="translate(360.91,257.9)" d="M3,0A3,3 0 1,1 0,-3A3,3 0 0,1 3,0Z" style="opacity: 1; stroke-width: 0px; fill: rgb(29, 110, 243); fill-opacity: 1;"/><path class="point" transform="translate(365.83,196.31)" d="M3,0A3,3 0 1,1 0,-3A3,3 0 0,1 3,0Z" style="opacity: 1; stroke-width: 0px; fill: rgb(29, 110, 243); fill-opacity: 1;"/><path class="point" transform="translate(370.76,263.01)" d="M3,0A3,3 0 1,1 0,-3A3,3 0 0,1 3,0Z" style="opacity: 1; stroke-width: 0px; fill: rgb(29, 110, 243); fill-opacity: 1;"/><path class="point" transform="translate(375.68,282.65)" d="M3,0A3,3 0 1,1 0,-3A3,3 0 0,1 3,0Z" style="opacity: 1; stroke-width: 0px; fill: rgb(29, 110, 243); fill-opacity: 1;"/><path class="point" transform="translate(380.61,186.89)" d="M3,0A3,3 0 1,1 0,-3A3,3 0 0,1 3,0Z" style="opacity: 1; stroke-width: 0px; fill: rgb(29, 110, 243); fill-opacity: 1;"/><path class="point" transform="translate(385.53,126.64)" d="M3,0A3,3 0 1,1 0,-3A3,3 0 0,1 3,0Z" style="opacity: 1; stroke-width: 0px; fill: rgb(29, 110, 243); fill-opacity: 1;"/><path class="point" transform="translate(390.45,148.7)" d="M3,0A3,3 0 1,1 0,-3A3,3 0 0,1 3,0Z" style="opacity: 1; stroke-width: 0px; fill: rgb(29, 110, 243); fill-opacity: 1;"/><path class="point" transform="translate(395.38,168.87)" d="M3,0A3,3 0 1,1 0,-3A3,3 0 0,1 3,0Z" style="opacity: 1; stroke-width: 0px; fill: rgb(29, 110, 243); fill-opacity: 1;"/><path class="point" transform="translate(400.3,166.18)" d="M3,0A3,3 0 1,1 0,-3A3,3 0 0,1 3,0Z" style="opacity: 1; stroke-width: 0px; fill: rgb(29, 110, 243); fill-opacity: 1;"/><path class="point" transform="translate(405.23,246.07)" d="M3,0A3,3 0 1,1 0,-3A3,3 0 0,1 3,0Z" style="opacity: 1; stroke-width: 0px; fill: rgb(29, 110, 243); fill-opacity: 1;"/><path class="point" transform="translate(410.15,276.19)" d="M3,0A3,3 0 1,1 0,-3A3,3 0 0,1 3,0Z" style="opacity: 1; stroke-width: 0px; fill: rgb(29, 110, 243); fill-opacity: 1;"/><path class="point" transform="translate(415.08,193.35)" d="M3,0A3,3 0 1,1 0,-3A3,3 0 0,1 3,0Z" style="opacity: 1; stroke-width: 0px; fill: rgb(29, 110, 243); fill-opacity: 1;"/><path class="point" transform="translate(420,151.92)" d="M3,0A3,3 0 1,1 0,-3A3,3 0 0,1 3,0Z" style="opacity: 1; stroke-width: 0px; fill: rgb(29, 110, 243); fill-opacity: 1;"/><path class="point" transform="translate(424.92,118.03)" d="M3,0A3,3 0 1,1 0,-3A3,3 0 0,1 3,0Z" style="opacity: 1; stroke-width: 0px; fill: rgb(29, 110, 243); fill-opacity: 1;"/><path class="point" transform="translate(429.85,170.21)" d="M3,0A3,3 0 1,1 0,-3A3,3 0 0,1 3,0Z" style="opacity: 1; stroke-width: 0px; fill: rgb(29, 110, 243); fill-opacity: 1;"/><path class="point" transform="translate(434.77,186.35)" d="M3,0A3,3 0 1,1 0,-3A3,3 0 0,1 3,0Z" style="opacity: 1; stroke-width: 0px; fill: rgb(29, 110, 243); fill-opacity: 1;"/><path class="point" transform="translate(439.7,235.04)" d="M3,0A3,3 0 1,1 0,-3A3,3 0 0,1 3,0Z" style="opacity: 1; stroke-width: 0px; fill: rgb(29, 110, 243); fill-opacity: 1;"/><path class="point" transform="translate(444.62,275.92)" d="M3,0A3,3 0 1,1 0,-3A3,3 0 0,1 3,0Z" style="opacity: 1; stroke-width: 0px; fill: rgb(29, 110, 243); fill-opacity: 1;"/><path class="point" transform="translate(449.55,187.16)" d="M3,0A3,3 0 1,1 0,-3A3,3 0 0,1 3,0Z" style="opacity: 1; stroke-width: 0px; fill: rgb(29, 110, 243); fill-opacity: 1;"/><path class="point" transform="translate(454.47,127.45)" d="M3,0A3,3 0 1,1 0,-3A3,3 0 0,1 3,0Z" style="opacity: 1; stroke-width: 0px; fill: rgb(29, 110, 243); fill-opacity: 1;"/><path class="point" transform="translate(459.39,158.38)" d="M3,0A3,3 0 1,1 0,-3A3,3 0 0,1 3,0Z" style="opacity: 1; stroke-width: 0px; fill: rgb(29, 110, 243); fill-opacity: 1;"/><path class="point" transform="translate(464.32,171.29)" d="M3,0A3,3 0 1,1 0,-3A3,3 0 0,1 3,0Z" style="opacity: 1; stroke-width: 0px; fill: rgb(29, 110, 243); fill-opacity: 1;"/><path class="point" transform="translate(469.24,168.33)" d="M3,0A3,3 0 1,1 0,-3A3,3 0 0,1 3,0Z" style="opacity: 1; stroke-width: 0px; fill: rgb(29, 110, 243); fill-opacity: 1;"/><path class="point" transform="translate(474.17,244.72)" d="M3,0A3,3 0 1,1 0,-3A3,3 0 0,1 3,0Z" style="opacity: 1; stroke-width: 0px; fill: rgb(29, 110, 243); fill-opacity: 1;"/><path class="point" transform="translate(479.09,269.2)" d="M3,0A3,3 0 1,1 0,-3A3,3 0 0,1 3,0Z" style="opacity: 1; stroke-width: 0px; fill: rgb(29, 110, 243); fill-opacity: 1;"/><path class="point" transform="translate(484.02,198.19)" d="M3,0A3,3 0 1,1 0,-3A3,3 0 0,1 3,0Z" style="opacity: 1; stroke-width: 0px; fill: rgb(29, 110, 243); fill-opacity: 1;"/><path class="point" transform="translate(488.94,164.83)" d="M3,0A3,3 0 1,1 0,-3A3,3 0 0,1 3,0Z" style="opacity: 1; stroke-width: 0px; fill: rgb(29, 110, 243); fill-opacity: 1;"/><path class="point" transform="translate(493.87,172.1)" d="M3,0A3,3 0 1,1 0,-3A3,3 0 0,1 3,0Z" style="opacity: 1; stroke-width: 0px; fill: rgb(29, 110, 243); fill-opacity: 1;"/><path class="point" transform="translate(498.79,114.81)" d="M3,0A3,3 0 1,1 0,-3A3,3 0 0,1 3,0Z" style="opacity: 1; stroke-width: 0px; fill: rgb(29, 110, 243); fill-opacity: 1;"/><path class="point" transform="translate(503.71,116.42)" d="M3,0A3,3 0 1,1 0,-3A3,3 0 0,1 3,0Z" style="opacity: 1; stroke-width: 0px; fill: rgb(29, 110, 243); fill-opacity: 1;"/><path class="point" transform="translate(508.64,253.06)" d="M3,0A3,3 0 1,1 0,-3A3,3 0 0,1 3,0Z" style="opacity: 1; stroke-width: 0px; fill: rgb(29, 110, 243); fill-opacity: 1;"/><path class="point" transform="translate(513.56,264.89)" d="M3,0A3,3 0 1,1 0,-3A3,3 0 0,1 3,0Z" style="opacity: 1; stroke-width: 0px; fill: rgb(29, 110, 243); fill-opacity: 1;"/><path class="point" transform="translate(518.49,172.37)" d="M3,0A3,3 0 1,1 0,-3A3,3 0 0,1 3,0Z" style="opacity: 1; stroke-width: 0px; fill: rgb(29, 110, 243); fill-opacity: 1;"/><path class="point" transform="translate(523.41,168.87)" d="M3,0A3,3 0 1,1 0,-3A3,3 0 0,1 3,0Z" style="opacity: 1; stroke-width: 0px; fill: rgb(29, 110, 243); fill-opacity: 1;"/><path class="point" transform="translate(528.34,103.24)" d="M3,0A3,3 0 1,1 0,-3A3,3 0 0,1 3,0Z" style="opacity: 1; stroke-width: 0px; fill: rgb(29, 110, 243); fill-opacity: 1;"/><path class="point" transform="translate(533.26,162.68)" d="M3,0A3,3 0 1,1 0,-3A3,3 0 0,1 3,0Z" style="opacity: 1; stroke-width: 0px; fill: rgb(29, 110, 243); fill-opacity: 1;"/><path class="point" transform="translate(538.18,140.63)" d="M3,0A3,3 0 1,1 0,-3A3,3 0 0,1 3,0Z" style="opacity: 1; stroke-width: 0px; fill: rgb(29, 110, 243); fill-opacity: 1;"/><path class="point" transform="translate(543.11,228.04)" d="M3,0A3,3 0 1,1 0,-3A3,3 0 0,1 3,0Z" style="opacity: 1; stroke-width: 0px; fill: rgb(29, 110, 243); fill-opacity: 1;"/><path class="point" transform="translate(548.03,236.65)" d="M3,0A3,3 0 1,1 0,-3A3,3 0 0,1 3,0Z" style="opacity: 1; stroke-width: 0px; fill: rgb(29, 110, 243); fill-opacity: 1;"/><path class="point" transform="translate(552.96,173.98)" d="M3,0A3,3 0 1,1 0,-3A3,3 0 0,1 3,0Z" style="opacity: 1; stroke-width: 0px; fill: rgb(29, 110, 243); fill-opacity: 1;"/><path class="point" transform="translate(557.88,127.99)" d="M3,0A3,3 0 1,1 0,-3A3,3 0 0,1 3,0Z" style="opacity: 1; stroke-width: 0px; fill: rgb(29, 110, 243); fill-opacity: 1;"/><path class="point" transform="translate(562.81,173.17)" d="M3,0A3,3 0 1,1 0,-3A3,3 0 0,1 3,0Z" style="opacity: 1; stroke-width: 0px; fill: rgb(29, 110, 243); fill-opacity: 1;"/><path class="point" transform="translate(567.73,158.11)" d="M3,0A3,3 0 1,1 0,-3A3,3 0 0,1 3,0Z" style="opacity: 1; stroke-width: 0px; fill: rgb(29, 110, 243); fill-opacity: 1;"/><path class="point" transform="translate(572.65,108.35)" d="M3,0A3,3 0 1,1 0,-3A3,3 0 0,1 3,0Z" style="opacity: 1; stroke-width: 0px; fill: rgb(29, 110, 243); fill-opacity: 1;"/><path class="point" transform="translate(577.58,234.23)" d="M3,0A3,3 0 1,1 0,-3A3,3 0 0,1 3,0Z" style="opacity: 1; stroke-width: 0px; fill: rgb(29, 110, 243); fill-opacity: 1;"/><path class="point" transform="translate(582.5,243.91)" d="M3,0A3,3 0 1,1 0,-3A3,3 0 0,1 3,0Z" style="opacity: 1; stroke-width: 0px; fill: rgb(29, 110, 243); fill-opacity: 1;"/><path class="point" transform="translate(587.43,191.19)" d="M3,0A3,3 0 1,1 0,-3A3,3 0 0,1 3,0Z" style="opacity: 1; stroke-width: 0px; fill: rgb(29, 110, 243); fill-opacity: 1;"/><path class="point" transform="translate(592.35,55.36)" d="M3,0A3,3 0 1,1 0,-3A3,3 0 0,1 3,0Z" style="opacity: 1; stroke-width: 0px; fill: rgb(29, 110, 243); fill-opacity: 1;"/><path class="point" transform="translate(597.28,83.34)" d="M3,0A3,3 0 1,1 0,-3A3,3 0 0,1 3,0Z" style="opacity: 1; stroke-width: 0px; fill: rgb(29, 110, 243); fill-opacity: 1;"/><path class="point" transform="translate(602.2,129.87)" d="M3,0A3,3 0 1,1 0,-3A3,3 0 0,1 3,0Z" style="opacity: 1; stroke-width: 0px; fill: rgb(29, 110, 243); fill-opacity: 1;"/><path class="point" transform="translate(607.13,141.17)" d="M3,0A3,3 0 1,1 0,-3A3,3 0 0,1 3,0Z" style="opacity: 1; stroke-width: 0px; fill: rgb(29, 110, 243); fill-opacity: 1;"/><path class="point" transform="translate(612.05,226.7)" d="M3,0A3,3 0 1,1 0,-3A3,3 0 0,1 3,0Z" style="opacity: 1; stroke-width: 0px; fill: rgb(29, 110, 243); fill-opacity: 1;"/><path class="point" transform="translate(616.97,268.66)" d="M3,0A3,3 0 1,1 0,-3A3,3 0 0,1 3,0Z" style="opacity: 1; stroke-width: 0px; fill: rgb(29, 110, 243); fill-opacity: 1;"/><path class="point" transform="translate(621.9,205.18)" d="M3,0A3,3 0 1,1 0,-3A3,3 0 0,1 3,0Z" style="opacity: 1; stroke-width: 0px; fill: rgb(29, 110, 243); fill-opacity: 1;"/><path class="point" transform="translate(626.82,132.29)" d="M3,0A3,3 0 1,1 0,-3A3,3 0 0,1 3,0Z" style="opacity: 1; stroke-width: 0px; fill: rgb(29, 110, 243); fill-opacity: 1;"/><path class="point" transform="translate(631.75,134.71)" d="M3,0A3,3 0 1,1 0,-3A3,3 0 0,1 3,0Z" style="opacity: 1; stroke-width: 0px; fill: rgb(29, 110, 243); fill-opacity: 1;"/><path class="point" transform="translate(636.67,139.55)" d="M3,0A3,3 0 1,1 0,-3A3,3 0 0,1 3,0Z" style="opacity: 1; stroke-width: 0px; fill: rgb(29, 110, 243); fill-opacity: 1;"/><path class="point" transform="translate(641.6,156.23)" d="M3,0A3,3 0 1,1 0,-3A3,3 0 0,1 3,0Z" style="opacity: 1; stroke-width: 0px; fill: rgb(29, 110, 243); fill-opacity: 1;"/><path class="point" transform="translate(646.52,236.11)" d="M3,0A3,3 0 1,1 0,-3A3,3 0 0,1 3,0Z" style="opacity: 1; stroke-width: 0px; fill: rgb(29, 110, 243); fill-opacity: 1;"/><path class="point" transform="translate(651.44,260.32)" d="M3,0A3,3 0 1,1 0,-3A3,3 0 0,1 3,0Z" style="opacity: 1; stroke-width: 0px; fill: rgb(29, 110, 243); fill-opacity: 1;"/><path class="point" transform="translate(656.37,264.89)" d="M3,0A3,3 0 1,1 0,-3A3,3 0 0,1 3,0Z" style="opacity: 1; stroke-width: 0px; fill: rgb(29, 110, 243); fill-opacity: 1;"/><path class="point" transform="translate(661.29,162.95)" d="M3,0A3,3 0 1,1 0,-3A3,3 0 0,1 3,0Z" style="opacity: 1; stroke-width: 0px; fill: rgb(29, 110, 243); fill-opacity: 1;"/><path class="point" transform="translate(666.22,82.26)" d="M3,0A3,3 0 1,1 0,-3A3,3 0 0,1 3,0Z" style="opacity: 1; stroke-width: 0px; fill: rgb(29, 110, 243); fill-opacity: 1;"/><path class="point" transform="translate(671.14,126.1)" d="M3,0A3,3 0 1,1 0,-3A3,3 0 0,1 3,0Z" style="opacity: 1; stroke-width: 0px; fill: rgb(29, 110, 243); fill-opacity: 1;"/><path class="point" transform="translate(676.07,101.36)" d="M3,0A3,3 0 1,1 0,-3A3,3 0 0,1 3,0Z" style="opacity: 1; stroke-width: 0px; fill: rgb(29, 110, 243); fill-opacity: 1;"/><path class="point" transform="translate(680.99,224.01)" d="M3,0A3,3 0 1,1 0,-3A3,3 0 0,1 3,0Z" style="opacity: 1; stroke-width: 0px; fill: rgb(29, 110, 243); fill-opacity: 1;"/><path class="point" transform="translate(685.91,276.19)" d="M3,0A3,3 0 1,1 0,-3A3,3 0 0,1 3,0Z" style="opacity: 1; stroke-width: 0px; fill: rgb(29, 110, 243); fill-opacity: 1;"/><path class="point" transform="translate(690.84,175.33)" d="M3,0A3,3 0 1,1 0,-3A3,3 0 0,1 3,0Z" style="opacity: 1; stroke-width: 0px; fill: rgb(29, 110, 243); fill-opacity: 1;"/><path class="point" transform="translate(695.76,162.95)" d="M3,0A3,3 0 1,1 0,-3A3,3 0 0,1 3,0Z" style="opacity: 1; stroke-width: 0px; fill: rgb(29, 110, 243); fill-opacity: 1;"/><path class="point" transform="translate(700.69,168.6)" d="M3,0A3,3 0 1,1 0,-3A3,3 0 0,1 3,0Z" style="opacity: 1; stroke-width: 0px; fill: rgb(29, 110, 243); fill-opacity: 1;"/><path class="point" transform="translate(705.61,119.38)" d="M3,0A3,3 0 1,1 0,-3A3,3 0 0,1 3,0Z" style="opacity: 1; stroke-width: 0px; fill: rgb(29, 110, 243); fill-opacity: 1;"/><path class="point" transform="translate(710.54,141.97)" d="M3,0A3,3 0 1,1 0,-3A3,3 0 0,1 3,0Z" style="opacity: 1; stroke-width: 0px; fill: rgb(29, 110, 243); fill-opacity: 1;"/><path class="point" transform="translate(715.46,246.07)" d="M3,0A3,3 0 1,1 0,-3A3,3 0 0,1 3,0Z" style="opacity: 1; stroke-width: 0px; fill: rgb(29, 110, 243); fill-opacity: 1;"/><path class="point" transform="translate(720.38,268.12)" d="M3,0A3,3 0 1,1 0,-3A3,3 0 0,1 3,0Z" style="opacity: 1; stroke-width: 0px; fill: rgb(29, 110, 243); fill-opacity: 1;"/><path class="point" transform="translate(725.31,178.55)" d="M3,0A3,3 0 1,1 0,-3A3,3 0 0,1 3,0Z" style="opacity: 1; stroke-width: 0px; fill: rgb(29, 110, 243); fill-opacity: 1;"/><path class="point" transform="translate(730.23,116.42)" d="M3,0A3,3 0 1,1 0,-3A3,3 0 0,1 3,0Z" style="opacity: 1; stroke-width: 0px; fill: rgb(29, 110, 243); fill-opacity: 1;"/><path class="point" transform="translate(735.16,113.19)" d="M3,0A3,3 0 1,1 0,-3A3,3 0 0,1 3,0Z" style="opacity: 1; stroke-width: 0px; fill: rgb(29, 110, 243); fill-opacity: 1;"/><path class="point" transform="translate(740.08,98.67)" d="M3,0A3,3 0 1,1 0,-3A3,3 0 0,1 3,0Z" style="opacity: 1; stroke-width: 0px; fill: rgb(29, 110, 243); fill-opacity: 1;"/><path class="point" transform="translate(745.01,153.54)" d="M3,0A3,3 0 1,1 0,-3A3,3 0 0,1 3,0Z" style="opacity: 1; stroke-width: 0px; fill: rgb(29, 110, 243); fill-opacity: 1;"/><path class="point" transform="translate(749.93,211.64)" d="M3,0A3,3 0 1,1 0,-3A3,3 0 0,1 3,0Z" style="opacity: 1; stroke-width: 0px; fill: rgb(29, 110, 243); fill-opacity: 1;"/><path class="point" transform="translate(754.86,242.84)" d="M3,0A3,3 0 1,1 0,-3A3,3 0 0,1 3,0Z" style="opacity: 1; stroke-width: 0px; fill: rgb(29, 110, 243); fill-opacity: 1;"/><path class="point" transform="translate(759.78,162.15)" d="M3,0A3,3 0 1,1 0,-3A3,3 0 0,1 3,0Z" style="opacity: 1; stroke-width: 0px; fill: rgb(29, 110, 243); fill-opacity: 1;"/><path class="point" transform="translate(764.7,44.87)" d="M3,0A3,3 0 1,1 0,-3A3,3 0 0,1 3,0Z" style="opacity: 1; stroke-width: 0px; fill: rgb(29, 110, 243); fill-opacity: 1;"/><path class="point" transform="translate(769.63,115.88)" d="M3,0A3,3 0 1,1 0,-3A3,3 0 0,1 3,0Z" style="opacity: 1; stroke-width: 0px; fill: rgb(29, 110, 243); fill-opacity: 1;"/><path class="point" transform="translate(774.55,52.94)" d="M3,0A3,3 0 1,1 0,-3A3,3 0 0,1 3,0Z" style="opacity: 1; stroke-width: 0px; fill: rgb(29, 110, 243); fill-opacity: 1;"/><path class="point" transform="translate(779.48,93.56)" d="M3,0A3,3 0 1,1 0,-3A3,3 0 0,1 3,0Z" style="opacity: 1; stroke-width: 0px; fill: rgb(29, 110, 243); fill-opacity: 1;"/><path class="point" transform="translate(784.4,224.01)" d="M3,0A3,3 0 1,1 0,-3A3,3 0 0,1 3,0Z" style="opacity: 1; stroke-width: 0px; fill: rgb(29, 110, 243); fill-opacity: 1;"/><path class="point" transform="translate(789.33,177.48)" d="M3,0A3,3 0 1,1 0,-3A3,3 0 0,1 3,0Z" style="opacity: 1; stroke-width: 0px; fill: rgb(29, 110, 243); fill-opacity: 1;"/><path class="point" transform="translate(794.25,152.73)" d="M3,0A3,3 0 1,1 0,-3A3,3 0 0,1 3,0Z" style="opacity: 1; stroke-width: 0px; fill: rgb(29, 110, 243); fill-opacity: 1;"/></g><g class="text"/></g></g></g></g><path class="xlines-above crisp" d="M79,406.5H920" style="fill: none; stroke-width: 1px; stroke: rgb(0, 0, 0); stroke-opacity: 1;"/><path class="ylines-above crisp" d="M79.5,100V406" style="fill: none; stroke-width: 1px; stroke: rgb(0, 0, 0); stroke-opacity: 1;"/><g class="overlines-above"/><g class="xaxislayer-above"><g class="xtick"><text text-anchor="end" x="0" y="423.8" transform="translate(125.75,0) rotate(-30,0,416.8)" style="font-family: Arial; font-size: 14px; fill: rgb(42, 63, 95); fill-opacity: 1; white-space: pre; opacity: 1;">May 2024</text></g><g class="xtick"><text text-anchor="end" x="0" y="423.8" style="font-family: Arial; font-size: 14px; fill: rgb(42, 63, 95); fill-opacity: 1; white-space: pre; opacity: 1;" transform="translate(278.4,0) rotate(-30,0,416.8)">Jun 2024</text></g><g class="xtick"><text text-anchor="end" x="0" y="423.8" style="font-family: Arial; font-size: 14px; fill: rgb(42, 63, 95); fill-opacity: 1; white-space: pre; opacity: 1;" transform="translate(426.13,0) rotate(-30,0,416.8)">Jul 2024</text></g><g class="xtick"><text text-anchor="end" x="0" y="423.8" style="font-family: Arial; font-size: 14px; fill: rgb(42, 63, 95); fill-opacity: 1; white-space: pre; opacity: 1;" transform="translate(578.79,0) rotate(-30,0,416.8)">Aug 2024</text></g><g class="xtick"><text text-anchor="end" x="0" y="423.8" style="font-family: Arial; font-size: 14px; fill: rgb(42, 63, 95); fill-opacity: 1; white-space: pre; opacity: 1;" transform="translate(731.44,0) rotate(-30,0,416.8)">Sep 2024</text></g><g class="xtick"><text text-anchor="end" x="0" y="423.8" style="font-family: Arial; font-size: 14px; fill: rgb(42, 63, 95); fill-opacity: 1; white-space: pre; opacity: 1;" transform="translate(879.17,0) rotate(-30,0,416.8)">Oct 2024</text></g></g><g class="yaxislayer-above"><g class="ytick"><text text-anchor="end" x="76.2" y="4.8999999999999995" transform="translate(0,401.47)" style="font-family: Arial; font-size: 14px; fill: rgb(42, 63, 95); fill-opacity: 1; white-space: pre; opacity: 1;">0</text></g><g class="ytick"><text text-anchor="end" x="76.2" y="4.8999999999999995" style="font-family: Arial; font-size: 14px; fill: rgb(42, 63, 95); fill-opacity: 1; white-space: pre; opacity: 1;" transform="translate(0,347.68)">200</text></g><g class="ytick"><text text-anchor="end" x="76.2" y="4.8999999999999995" style="font-family: Arial; font-size: 14px; fill: rgb(42, 63, 95); fill-opacity: 1; white-space: pre; opacity: 1;" transform="translate(0,293.88)">400</text></g><g class="ytick"><text text-anchor="end" x="76.2" y="4.8999999999999995" style="font-family: Arial; font-size: 14px; fill: rgb(42, 63, 95); fill-opacity: 1; white-space: pre; opacity: 1;" transform="translate(0,240.09)">600</text></g><g class="ytick"><text text-anchor="end" x="76.2" y="4.8999999999999995" style="font-family: Arial; font-size: 14px; fill: rgb(42, 63, 95); fill-opacity: 1; white-space: pre; opacity: 1;" transform="translate(0,186.29000000000002)">800</text></g><g class="ytick"><text text-anchor="end" x="76.2" y="4.8999999999999995" style="font-family: Arial; font-size: 14px; fill: rgb(42, 63, 95); fill-opacity: 1; white-space: pre; opacity: 1;" transform="translate(0,132.5)">1000</text></g></g><g class="overaxes-above"/></g></g><g class="polarlayer"/><g class="smithlayer"/><g class="ternarylayer"/><g class="geolayer"/><g class="funnelarealayer"/><g class="pielayer"/><g class="iciclelayer"/><g class="treemaplayer"/><g class="sunburstlayer"/><g class="glimages"/><defs id="topdefs-2b14c6"><g class="clips"/></defs><g class="layer-above"><g class="imagelayer"/><g class="shapelayer"/></g><g class="infolayer"><g class="g-gtitle"><text class="gtitle" x="50" y="50" text-anchor="start" dy="0em" style="opacity: 1; font-family: Arial; font-size: 28px; fill: rgb(42, 63, 95); fill-opacity: 1; white-space: pre;">Job Posting Trends Over Time</text></g><g class="g-xtitle"><text class="xtitle" x="500" y="487.070703125" text-anchor="middle" style="opacity: 1; font-family: Arial; font-size: 18px; fill: rgb(42, 63, 95); fill-opacity: 1; white-space: pre;">Month</text></g><g class="g-ytitle"><text class="ytitle" transform="rotate(-90,19.387500000000003,253)" x="19.387500000000003" y="253" text-anchor="middle" style="opacity: 1; font-family: Arial; font-size: 18px; fill: rgb(42, 63, 95); fill-opacity: 1; white-space: pre;">Number of Job Postings</text></g></g></svg>